<svg width="123" height="109" viewBox="0 0 123 109" fill="none" xmlns="http://www.w3.org/2000/svg">
<g clip-path="url(#clip0_1658_256)">
<path d="M89.8208 51.7651C88.9496 51.6697 88.3687 51.2305 88.3687 50.3269C88.3624 49.4359 88.9117 48.8949 89.7956 48.9013C90.6164 48.9013 91.1341 49.4168 91.1783 50.2314C91.2288 51.1351 90.6732 51.6124 89.8208 51.7651Z" fill="#446381"/>
<path d="M91.071 17.4312C91.0079 16.6802 90.4838 16.1902 89.7262 16.2347C88.9117 16.2793 88.4066 16.8266 88.4761 17.6603C88.5392 18.4112 89.0633 18.8122 89.8146 18.8822C90.6227 18.7358 91.1404 18.2712 91.071 17.4312Z" fill="#446381"/>
<path d="M81.8656 0.146295C81.0449 0.108111 80.5082 0.617234 80.4829 1.44456C80.464 2.20825 80.9565 2.72373 81.7015 2.76192C82.5286 2.80647 82.9832 2.27825 83.1094 1.47002C83.0274 0.706331 82.617 0.184479 81.8656 0.146295Z" fill="#446381"/>
<path d="M88.5579 9.56513C88.5958 10.3606 89.0945 10.7743 89.8648 10.7234C90.5783 10.6788 90.9886 10.227 90.9823 9.50785C90.9823 8.71235 90.5151 8.31141 89.7449 8.2605C88.9683 8.34323 88.52 8.77599 88.5579 9.56513Z" fill="#446381"/>
<path d="M97.738 49.054C96.9614 49.0667 96.4942 49.5504 96.5006 50.3268C96.5069 51.1096 96.9867 51.5805 97.7633 51.5742C98.5399 51.5678 98.9502 51.0778 99.0134 50.3014C98.9439 49.525 98.5209 49.0477 97.738 49.054Z" fill="#446381"/>
<path d="M107.12 33.9204C107.101 33.2649 106.691 32.8385 106.047 32.8385C105.327 32.8385 104.891 33.2967 104.936 34.0222C104.98 34.665 105.428 35.0087 106.135 35.0659C106.685 34.9132 107.139 34.5886 107.12 33.9204Z" fill="#446381"/>
<path d="M106.142 49.1941C105.416 49.1241 104.955 49.5377 104.904 50.2696C104.86 50.9378 105.264 51.3769 105.908 51.4406C106.64 51.5169 107.038 51.0715 107.164 50.3841C107.127 49.7032 106.792 49.2513 106.142 49.1941Z" fill="#446381"/>
<path d="M104.961 25.9144C104.967 26.5126 105.365 26.9199 105.946 26.9581C106.609 27.0026 107.051 26.589 107.082 25.9335C107.12 25.2653 106.672 24.9089 106.028 24.7943C105.39 24.8898 104.955 25.2398 104.961 25.9144Z" fill="#446381"/>
<path d="M104.904 41.9645C104.911 42.6964 105.353 43.1291 106.079 43.1037C106.729 43.0782 107.139 42.6518 107.139 41.99C107.139 41.2517 106.678 40.889 105.971 40.819C105.334 40.9463 104.904 41.2963 104.904 41.9645Z" fill="#446381"/>
<path d="M97.8389 0.426415C97.1886 0.381866 96.7593 0.789165 96.7341 1.44466C96.7151 2.03652 97.1066 2.44382 97.6748 2.482C98.3251 2.52655 98.6913 2.11289 98.8049 1.4383C98.7229 0.884626 98.4135 0.464599 97.8389 0.426415Z" fill="#446381"/>
<path d="M88.6339 1.41286C88.615 2.132 89.0191 2.57748 89.7325 2.60294C90.446 2.6284 90.8816 2.2211 90.9132 1.4956C90.9447 0.770094 90.5154 0.388251 89.7325 0.267334C89.139 0.369159 88.6466 0.668269 88.6339 1.41286Z" fill="#446381"/>
<path d="M96.6646 9.49507C96.6646 10.1506 97.0749 10.5833 97.7189 10.6024C98.4387 10.6151 98.8806 10.1633 98.8491 9.43779C98.8238 8.78866 98.3756 8.445 97.7316 8.375C97.0939 8.48955 96.6646 8.83957 96.6646 9.49507Z" fill="#446381"/>
<path d="M96.6145 17.4884C96.583 18.2076 96.9807 18.6594 97.6942 18.6976C98.4076 18.7358 98.8496 18.3285 98.8938 17.6094C98.938 16.8839 98.5086 16.4957 97.8268 16.3811C97.1133 16.4193 96.6524 16.7629 96.6145 17.4884Z" fill="#446381"/>
<path d="M105.011 17.6793C105.081 18.2584 105.498 18.6339 106.078 18.583C106.716 18.5257 107.114 18.0929 107.032 17.4311C106.962 16.852 106.546 16.5465 105.971 16.5083C105.34 16.6419 104.929 17.0111 105.011 17.6793Z" fill="#446381"/>
<path d="M106.129 8.60428C105.592 8.55336 105.207 8.7952 105.144 9.3616C105.081 9.96618 105.353 10.3671 105.99 10.3989C106.539 10.4244 106.855 10.1253 106.918 9.57161C106.925 9.0243 106.685 8.66155 106.129 8.60428Z" fill="#446381"/>
<path d="M106.849 1.58464C106.931 1.03733 106.628 0.674577 106.091 0.617301C105.611 0.566389 105.277 0.859135 105.207 1.32371C105.125 1.87738 105.441 2.18922 105.952 2.30377C106.445 2.29741 106.779 2.05558 106.849 1.58464Z" fill="#446381"/>
<path d="M114.898 34.0349C114.943 33.494 114.703 33.1058 114.141 33.0485C113.535 32.9849 113.143 33.2649 113.118 33.914C113.099 34.4677 113.396 34.7859 113.939 34.8432C114.494 34.8432 114.848 34.595 114.898 34.0349Z" fill="#446381"/>
<path d="M114.09 41.0863C113.547 41.0481 113.175 41.309 113.124 41.8691C113.074 42.48 113.364 42.8682 114.002 42.881C114.557 42.8937 114.854 42.5819 114.911 41.9518C114.886 41.4872 114.652 41.1181 114.09 41.0863Z" fill="#446381"/>
<path d="M114.835 17.6602C114.899 17.1129 114.595 16.7565 114.046 16.7183C113.56 16.6801 113.238 16.9856 113.181 17.4502C113.118 17.9975 113.44 18.3093 113.958 18.4111C114.457 18.3857 114.785 18.1248 114.835 17.6602Z" fill="#446381"/>
<path d="M114.065 49.4168C113.522 49.3914 113.162 49.6587 113.124 50.2187C113.08 50.836 113.389 51.2051 114.027 51.2051C114.583 51.2051 114.873 50.8869 114.911 50.3205C114.892 49.7859 114.627 49.4486 114.065 49.4168Z" fill="#446381"/>
<path d="M114.874 25.8571C114.861 25.3543 114.583 25.0489 114.091 25.017C113.535 24.9789 113.181 25.2652 113.156 25.838C113.131 26.4108 113.447 26.7099 114.084 26.7672C114.545 26.7035 114.886 26.4426 114.874 25.8571Z" fill="#446381"/>
<path d="M113.276 9.45691C113.244 9.88967 113.528 10.1951 113.932 10.2333C114.419 10.2779 114.741 9.9724 114.741 9.47601C114.734 9.05598 114.438 8.81415 113.97 8.74414C113.61 8.82051 113.307 9.03052 113.276 9.45691Z" fill="#446381"/>
<path d="M121.951 42.7218C122.38 42.7536 122.683 42.4673 122.721 42.06C122.765 41.5699 122.462 41.2454 121.97 41.2454C121.553 41.2517 121.313 41.5508 121.25 41.9709C121.294 42.3973 121.534 42.6836 121.951 42.7218Z" fill="#446381"/>
<path d="M122.071 49.5823C121.642 49.525 121.332 49.805 121.276 50.2059C121.206 50.696 121.503 51.0269 121.989 51.0524C122.412 51.0714 122.652 50.7723 122.74 50.3459C122.715 49.9259 122.475 49.6332 122.071 49.5823Z" fill="#446381"/>
<path d="M113.989 0.87187C113.674 0.878234 113.465 1.05643 113.434 1.37463C113.402 1.75011 113.573 2.01103 113.964 2.03649C114.349 2.06195 114.558 1.8583 114.596 1.45736C114.57 1.07552 114.381 0.859142 113.989 0.87187Z" fill="#446381"/>
<path d="M121.926 25.3034C121.604 25.3289 121.433 25.5325 121.42 25.8507C121.408 26.239 121.61 26.4681 122.001 26.4617C122.393 26.4617 122.576 26.2326 122.582 25.8571C122.532 25.4562 122.304 25.2716 121.926 25.3034Z" fill="#446381"/>
<path d="M122.614 34.035C122.658 33.5958 122.456 33.3095 121.989 33.3031C121.604 33.3031 121.389 33.5131 121.37 33.9013C121.351 34.2895 121.547 34.5059 121.976 34.5696C122.298 34.5696 122.576 34.4295 122.614 34.035Z" fill="#446381"/>
<path d="M91.1529 33.9904C91.1781 33.1058 90.6415 32.5457 89.7575 32.5394C88.9431 32.533 88.4191 33.0612 88.3875 33.8758C88.3559 34.7731 88.9241 35.2377 89.7639 35.365C90.5783 35.2441 91.1339 34.8113 91.1529 33.9904Z" fill="#446381"/>
<path d="M88.413 25.7935C88.3499 26.6145 88.855 27.1809 89.6442 27.2509C90.5218 27.3336 91.0963 26.7863 91.1279 25.9081C91.1595 25.0871 90.6102 24.6416 89.821 24.4825C89.0255 24.5589 88.4762 24.9853 88.413 25.7935Z" fill="#446381"/>
<path d="M97.713 24.6607C96.9996 24.6798 96.5703 25.1062 96.545 25.819C96.5197 26.6018 96.9491 27.0854 97.732 27.1045C98.5149 27.1236 98.9253 26.659 98.9884 25.8763C98.9126 25.0935 98.4959 24.6416 97.713 24.6607Z" fill="#446381"/>
<path d="M99.0073 41.9963C99.0136 41.2135 98.5464 40.7299 97.7698 40.7235C96.9932 40.7108 96.5134 41.1881 96.5071 41.9709C96.4945 42.7536 96.968 43.18 97.7824 43.2691C98.5085 43.1864 99.001 42.7855 99.0073 41.9963Z" fill="#446381"/>
<path d="M97.7444 32.673C96.9678 32.6858 96.5006 33.1631 96.5069 33.9458C96.5132 34.7286 96.9931 35.1996 97.7696 35.1932C98.5462 35.1868 98.9566 34.6968 99.0197 33.9204C98.944 33.1376 98.521 32.6667 97.7444 32.673Z" fill="#446381"/>
<path d="M83.1534 9.53966C83.1786 8.7187 82.6609 8.17139 81.8654 8.1332C80.9878 8.09502 80.4259 8.64869 80.4322 9.53329C80.4385 10.3479 80.9941 10.787 81.7896 10.9079C82.5788 10.7934 83.1281 10.3606 83.1534 9.53966Z" fill="#446381"/>
<path d="M72.4203 1.38731C72.395 2.27828 72.9254 2.83832 73.8093 2.84468C74.6174 2.85741 75.1478 2.33556 75.1857 1.52096C75.2236 0.623627 74.6616 0.159052 73.7399 0.019043C73.0264 0.165416 72.4456 0.559987 72.4203 1.38731Z" fill="#446381"/>
<path d="M91.1531 42.0919C91.2163 41.2073 90.6859 40.6218 89.8083 40.5899C88.9307 40.5645 88.3814 41.1245 88.3877 42.0155C88.3941 42.8365 88.937 43.2756 89.7262 43.4092C90.5407 43.3265 91.0963 42.9001 91.1531 42.0919Z" fill="#446381"/>
<path d="M81.7392 16.1329C80.9247 16.1584 80.407 16.6739 80.3817 17.4885C80.3565 18.3794 80.8805 18.9395 81.7644 18.9585C82.661 18.9776 83.1092 18.4049 83.2229 17.533C83.0966 16.6675 82.6357 16.1075 81.7392 16.1329Z" fill="#446381"/>
<path d="M81.8338 24.4316C80.9372 24.4125 80.3879 24.8961 80.3501 25.8062C80.3122 26.7799 80.8362 27.3399 81.8148 27.3399C82.724 27.3399 83.1723 26.7863 83.2543 25.8953C83.1849 25.0043 82.7429 24.4507 81.8338 24.4316Z" fill="#446381"/>
<path d="M73.8537 8.05051C72.8814 8.03778 72.3384 8.58509 72.37 9.56515C72.3952 10.4752 72.9319 10.9716 73.8347 10.9589C74.7439 10.9461 75.1922 10.4116 75.2806 9.43787C75.1795 8.64237 74.7691 8.06324 73.8537 8.05051Z" fill="#446381"/>
<path d="M65.5133 1.81177e-05C64.6105 0.0191103 64.0928 0.534598 64.0928 1.44466C64.0928 2.43108 64.661 2.95294 65.627 2.90839C66.5362 2.86384 66.9592 2.29107 66.9971 1.38102C66.8897 0.502778 66.4162 -0.019074 65.5133 1.81177e-05Z" fill="#446381"/>
<path d="M81.8149 40.4881C80.9247 40.469 80.3691 40.9463 80.3123 41.85C80.2491 42.8046 80.7164 43.4219 81.695 43.4728C82.6546 43.5237 83.1913 43.0083 83.2923 42.0409C83.2481 41.08 82.7935 40.5008 81.8149 40.4881Z" fill="#446381"/>
<path d="M80.3377 33.7421C80.2493 34.7031 80.6913 35.3268 81.6762 35.4032C82.5601 35.4732 83.1536 35.034 83.2483 34.1176C83.3493 33.1503 82.8758 32.5839 81.8972 32.4312C81.0385 32.4566 80.4198 32.8194 80.3377 33.7421Z" fill="#446381"/>
<path d="M81.7647 48.8187C80.8681 48.825 80.3378 49.3278 80.3062 50.2315C80.2683 51.1988 80.7671 51.7779 81.7394 51.8098C82.7117 51.8352 83.2168 51.2943 83.2863 50.3269C83.2294 49.366 82.737 48.8123 81.7647 48.8187Z" fill="#446381"/>
<path d="M72.3191 17.5265C72.3065 18.4239 72.78 18.9839 73.6765 19.0412C74.6236 19.1048 75.236 18.6275 75.2865 17.6411C75.337 16.6738 74.8256 16.1328 73.8659 16.0374C72.9063 16.0755 72.338 16.5401 72.3191 17.5265Z" fill="#446381"/>
<path d="M65.6521 7.98701C64.705 7.92337 64.0926 8.40703 64.0294 9.38073C63.9663 10.3353 64.4461 10.9526 65.4121 11.0163C66.3592 11.0799 66.9274 10.5899 67.0537 9.6162C67.0537 8.67432 66.6244 8.05065 65.6521 7.98701Z" fill="#446381"/>
<path d="M75.3751 25.978C75.4193 24.9852 74.8132 24.3297 73.8283 24.3042C72.9065 24.2788 72.2878 24.877 72.2373 25.7934C72.1867 26.7926 72.8055 27.3526 73.7841 27.4926C74.6996 27.3972 75.3309 26.8944 75.3751 25.978Z" fill="#446381"/>
<path d="M73.8093 32.323C72.8939 32.3102 72.2688 32.9084 72.2057 33.8185C72.1425 34.8177 72.7486 35.4859 73.7209 35.5432C74.7059 35.6004 75.2615 34.9577 75.4319 33.9585C75.3246 32.9912 74.8006 32.3357 73.8093 32.323Z" fill="#446381"/>
<path d="M65.5701 15.891C64.5851 15.9292 63.998 16.5019 63.8906 17.4756C63.7896 18.3539 64.6861 19.2767 65.5637 19.2067C66.5424 19.1303 67.0664 18.5194 67.1864 17.6284C67.1927 16.712 66.4035 15.8592 65.5701 15.891Z" fill="#446381"/>
<path d="M73.8473 48.6595C72.8624 48.6913 72.2752 49.2641 72.1553 50.2378C72.0543 51.1097 72.9508 52.0388 73.8221 51.9752C74.8007 51.8988 75.3247 51.2942 75.451 50.4032C75.4636 49.4868 74.6807 48.634 73.8473 48.6595Z" fill="#446381"/>
<path d="M73.7715 43.6256C74.7501 43.6447 75.3436 43.021 75.4509 42.0473C75.5456 41.1691 74.6491 40.2463 73.7715 40.3227C72.7929 40.4054 72.2689 41.01 72.1426 41.9837C72.2689 42.951 72.7929 43.6065 73.7715 43.6256Z" fill="#446381"/>
<path d="M63.8594 25.889C63.8531 26.8754 64.4655 27.5182 65.4315 27.5691C66.4796 27.6263 67.1552 27.0027 67.2057 25.9526C67.2562 24.8898 66.5869 24.3298 65.5641 24.1643C64.5413 24.2916 63.8721 24.8262 63.8594 25.889Z" fill="#446381"/>
<path d="M65.4884 32.234C64.4466 32.2722 63.8153 32.934 63.8468 33.9841C63.8784 35.0342 64.535 35.6642 65.5831 35.6387C66.6312 35.6133 67.1552 34.9196 67.2625 33.8823C67.0921 32.864 66.5428 32.1958 65.4884 32.234Z" fill="#446381"/>
<path d="M65.5321 40.2653C64.4777 40.2717 63.8842 40.889 63.8211 41.9454C63.7643 42.9573 64.604 43.7783 65.6015 43.7083C66.6622 43.6319 67.18 42.9891 67.2683 41.9327C67.1358 40.9145 66.5991 40.2526 65.5321 40.2653Z" fill="#446381"/>
<path d="M63.8213 50.2696C63.834 51.3324 64.4022 51.9561 65.4503 52.0452C66.4478 52.1279 67.2875 51.307 67.2433 50.3014C67.1991 49.2259 66.5741 48.6977 65.7281 48.5895C64.5979 48.5768 63.815 49.315 63.8213 50.2696Z" fill="#446381"/>
</g>
<g clip-path="url(#clip1_1658_256)">
<path d="M32.9194 51.7651C33.7907 51.6697 34.3715 51.2305 34.3715 50.3269C34.3778 49.4359 33.8286 48.8949 32.9446 48.9013C32.1239 48.9013 31.6061 49.4168 31.5619 50.2314C31.5114 51.1351 32.067 51.6124 32.9194 51.7651Z" fill="#446381"/>
<path d="M31.6692 17.4312C31.7324 16.6802 32.2564 16.1902 33.014 16.2347C33.8285 16.2793 34.3336 16.8266 34.2642 17.6603C34.201 18.4112 33.677 18.8122 32.9257 18.8822C32.1175 18.7358 31.5998 18.2712 31.6692 17.4312Z" fill="#446381"/>
<path d="M40.8746 0.146295C41.6954 0.108111 42.232 0.617234 42.2573 1.44456C42.2762 2.20825 41.7838 2.72373 41.0387 2.76192C40.2117 2.80647 39.7571 2.27825 39.6308 1.47002C39.7129 0.706331 40.1233 0.184479 40.8746 0.146295Z" fill="#446381"/>
<path d="M34.1819 9.56513C34.144 10.3606 33.6452 10.7743 32.8749 10.7234C32.1615 10.6788 31.7511 10.227 31.7574 9.50785C31.7574 8.71235 32.2246 8.31141 32.9949 8.2605C33.7715 8.34323 34.2197 8.77599 34.1819 9.56513Z" fill="#446381"/>
<path d="M25.0017 49.054C25.7783 49.0667 26.2455 49.5504 26.2392 50.3268C26.2329 51.1096 25.753 51.5805 24.9765 51.5742C24.1999 51.5678 23.7895 51.0778 23.7264 50.3014C23.7958 49.525 24.2188 49.0477 25.0017 49.054Z" fill="#446381"/>
<path d="M15.62 33.9204C15.639 33.2649 16.0494 32.8385 16.6933 32.8385C17.4131 32.8385 17.8487 33.2967 17.8045 34.0222C17.7603 34.665 17.3121 35.0086 16.605 35.0659C16.0557 34.9132 15.6011 34.5886 15.62 33.9204Z" fill="#446381"/>
<path d="M16.5986 49.1941C17.3247 49.1241 17.7856 49.5377 17.8361 50.2696C17.8803 50.9378 17.4762 51.3769 16.8322 51.4406C16.0998 51.5169 15.702 51.0715 15.5758 50.3841C15.6136 49.7032 15.9483 49.2513 16.5986 49.1941Z" fill="#446381"/>
<path d="M17.7792 25.9144C17.7729 26.5126 17.3752 26.9199 16.7943 26.9581C16.1314 27.0026 15.6894 26.589 15.6578 25.9335C15.62 25.2653 16.0682 24.9089 16.7122 24.7943C17.3499 24.8898 17.7855 25.2398 17.7792 25.9144Z" fill="#446381"/>
<path d="M17.8359 41.9645C17.8296 42.6964 17.3877 43.1291 16.6616 43.1037C16.0113 43.0782 15.6009 42.6518 15.6009 41.99C15.6009 41.2517 16.0618 40.889 16.7689 40.819C17.4066 40.9463 17.8359 41.2963 17.8359 41.9645Z" fill="#446381"/>
<path d="M24.9008 0.426415C25.5511 0.381866 25.9804 0.789165 26.0057 1.44466C26.0246 2.03652 25.6332 2.44382 25.065 2.482C24.4147 2.52655 24.0485 2.11289 23.9348 1.4383C24.0169 0.884626 24.3263 0.464599 24.9008 0.426415Z" fill="#446381"/>
<path d="M34.1063 1.41286C34.1252 2.132 33.7212 2.57748 33.0077 2.60294C32.2943 2.6284 31.8586 2.2211 31.8271 1.4956C31.7955 0.770094 32.2248 0.388251 33.0077 0.267334C33.6012 0.369159 34.0937 0.668269 34.1063 1.41286Z" fill="#446381"/>
<path d="M26.0752 9.49507C26.0752 10.1506 25.6648 10.5833 25.0208 10.6024C24.3011 10.6151 23.8591 10.1633 23.8907 9.43779C23.9159 8.78866 24.3642 8.445 25.0082 8.375C25.6459 8.48955 26.0752 8.83958 26.0752 9.49507Z" fill="#446381"/>
<path d="M26.1257 17.4884C26.1573 18.2076 25.7595 18.6594 25.0461 18.6976C24.3326 18.7358 23.8907 18.3285 23.8465 17.6094C23.8023 16.8839 24.2316 16.4957 24.9135 16.3811C25.6269 16.4193 26.0878 16.7629 26.1257 17.4884Z" fill="#446381"/>
<path d="M17.7283 17.6793C17.6589 18.2584 17.2422 18.6339 16.6613 18.583C16.0237 18.5257 15.6259 18.0929 15.708 17.4311C15.7774 16.852 16.1941 16.5465 16.7687 16.5083C17.4 16.6419 17.8104 17.0111 17.7283 17.6793Z" fill="#446381"/>
<path d="M16.6111 8.60428C17.1478 8.55336 17.5329 8.7952 17.5961 9.3616C17.6592 9.96618 17.3877 10.3671 16.75 10.3989C16.2007 10.4244 15.8851 10.1253 15.8219 9.57161C15.8156 9.0243 16.0555 8.66155 16.6111 8.60428Z" fill="#446381"/>
<path d="M15.8914 1.58464C15.8093 1.03733 16.1124 0.674577 16.6491 0.617301C17.1289 0.566389 17.4635 0.859135 17.533 1.32371C17.615 1.87738 17.2994 2.18922 16.788 2.30377C16.2955 2.29741 15.9609 2.05558 15.8914 1.58464Z" fill="#446381"/>
<path d="M7.84125 34.0349C7.79706 33.494 8.03698 33.1058 8.59889 33.0485C9.20501 32.9849 9.59645 33.2649 9.6217 33.914C9.64065 34.4677 9.34391 34.7859 8.80093 34.8432C8.24533 34.8432 7.89176 34.595 7.84125 34.0349Z" fill="#446381"/>
<path d="M8.64949 41.0863C9.19246 41.0481 9.56497 41.309 9.61548 41.8691C9.66599 42.48 9.37556 42.8682 8.73788 42.881C8.18228 42.8937 7.88554 42.5819 7.82872 41.9518C7.85397 41.4872 8.08757 41.1181 8.64949 41.0863Z" fill="#446381"/>
<path d="M7.90436 17.6602C7.84123 17.1129 8.14428 16.7565 8.69357 16.7183C9.17972 16.6801 9.50171 16.9856 9.55854 17.4502C9.62167 17.9975 9.29968 18.3093 8.78196 18.4111C8.28318 18.3857 7.95487 18.1248 7.90436 17.6602Z" fill="#446381"/>
<path d="M8.67474 49.4168C9.21772 49.3914 9.5776 49.6587 9.61548 50.2187C9.65968 50.836 9.35031 51.2051 8.71263 51.2051C8.15702 51.2051 7.86659 50.8869 7.82871 50.3205C7.84765 49.7859 8.11282 49.4486 8.67474 49.4168Z" fill="#446381"/>
<path d="M7.86674 25.8571C7.87936 25.3543 8.15716 25.0489 8.64963 25.017C9.20523 24.9789 9.55879 25.2652 9.58405 25.838C9.6093 26.4108 9.29362 26.7099 8.65594 26.7672C8.19505 26.7035 7.85411 26.4426 7.86674 25.8571Z" fill="#446381"/>
<path d="M9.46392 9.45691C9.49548 9.88967 9.21137 10.1951 8.80729 10.2333C8.32114 10.2779 7.99915 9.9724 7.99915 9.47601C8.00546 9.05598 8.3022 8.81415 8.76941 8.74414C9.12929 8.82051 9.43235 9.03052 9.46392 9.45691Z" fill="#446381"/>
<path d="M0.788934 42.7218C0.359608 42.7536 0.0565538 42.4673 0.0186721 42.06C-0.0255232 41.5699 0.277532 41.2454 0.769994 41.2454C1.18669 41.2517 1.42661 41.5508 1.48975 41.9709C1.44555 42.3973 1.20563 42.6836 0.788934 42.7218Z" fill="#446381"/>
<path d="M0.669056 49.5823C1.09838 49.525 1.40775 49.805 1.46457 50.2059C1.53402 50.696 1.23729 51.0269 0.751136 51.0524C0.328123 51.0714 0.0882038 50.7723 -0.000186959 50.3459C0.0250676 49.9259 0.264984 49.6332 0.669056 49.5823Z" fill="#446381"/>
<path d="M8.75076 0.87187C9.06645 0.878234 9.2748 1.05643 9.30637 1.37463C9.33794 1.75011 9.16747 2.01103 8.77602 2.03649C8.39088 2.06195 8.18253 1.8583 8.14465 1.45736C8.1699 1.07552 8.35931 0.859142 8.75076 0.87187Z" fill="#446381"/>
<path d="M0.814178 25.3034C1.13617 25.3289 1.30664 25.5325 1.31927 25.8507C1.33189 26.2389 1.12986 26.4681 0.738412 26.4617C0.346967 26.4617 0.163872 26.2326 0.157558 25.8571C0.208068 25.4562 0.435359 25.2716 0.814178 25.3034Z" fill="#446381"/>
<path d="M0.126049 34.035C0.0818534 33.5958 0.283894 33.3095 0.751105 33.3031C1.13624 33.3031 1.3509 33.5131 1.36984 33.9013C1.38878 34.2895 1.19306 34.5059 0.763731 34.5695C0.441734 34.5695 0.163931 34.4295 0.126049 34.035Z" fill="#446381"/>
<path d="M31.5869 33.9904C31.5616 33.1058 32.0983 32.5457 32.9822 32.5394C33.7967 32.533 34.3207 33.0612 34.3523 33.8758C34.3838 34.7731 33.8156 35.2377 32.9759 35.365C32.1614 35.2441 31.6058 34.8113 31.5869 33.9904Z" fill="#446381"/>
<path d="M34.3272 25.7935C34.3903 26.6145 33.8853 27.1809 33.096 27.2509C32.2184 27.3336 31.6439 26.7863 31.6123 25.9081C31.5808 25.0871 32.1301 24.6416 32.9193 24.4825C33.7148 24.5589 34.2641 24.9853 34.3272 25.7935Z" fill="#446381"/>
<path d="M25.0272 24.6607C25.7407 24.6798 26.17 25.1062 26.1952 25.819C26.2205 26.6018 25.7912 27.0854 25.0083 27.1045C24.2254 27.1236 23.815 26.659 23.7518 25.8763C23.8276 25.0935 24.2443 24.6416 25.0272 24.6607Z" fill="#446381"/>
<path d="M23.7329 41.9963C23.7266 41.2135 24.1938 40.7299 24.9704 40.7235C25.747 40.7108 26.2268 41.1881 26.2332 41.9709C26.2458 42.7536 25.7723 43.18 24.9578 43.2691C24.2317 43.1864 23.7393 42.7855 23.7329 41.9963Z" fill="#446381"/>
<path d="M24.9954 32.673C25.772 32.6858 26.2392 33.1631 26.2328 33.9458C26.2265 34.7286 25.7467 35.1996 24.9701 35.1932C24.1935 35.1868 23.7831 34.6968 23.72 33.9204C23.7958 33.1376 24.2188 32.6667 24.9954 32.673Z" fill="#446381"/>
<path d="M39.5864 9.53966C39.5611 8.7187 40.0788 8.17139 40.8744 8.1332C41.752 8.09502 42.3139 8.64869 42.3076 9.53329C42.3013 10.3479 41.7457 10.787 40.9501 10.9079C40.1609 10.7934 39.6116 10.3606 39.5864 9.53966Z" fill="#446381"/>
<path d="M50.3199 1.38731C50.3452 2.27828 49.8148 2.83832 48.9309 2.84468C48.1228 2.85741 47.5924 2.33556 47.5546 1.52096C47.5167 0.623627 48.0786 0.159052 49.0004 0.019043C49.7138 0.165416 50.2947 0.559987 50.3199 1.38731Z" fill="#446381"/>
<path d="M31.5871 42.0919C31.524 41.2073 32.0543 40.6218 32.9319 40.5899C33.8095 40.5645 34.3588 41.1245 34.3525 42.0155C34.3462 42.8365 33.8032 43.2756 33.014 43.4092C32.1995 43.3265 31.6439 42.9001 31.5871 42.0919Z" fill="#446381"/>
<path d="M41.0006 16.1329C41.815 16.1584 42.3328 16.6739 42.358 17.4885C42.3833 18.3794 41.8592 18.9395 40.9753 18.9585C40.0788 18.9776 39.6305 18.4049 39.5169 17.533C39.6431 16.6675 40.104 16.1075 41.0006 16.1329Z" fill="#446381"/>
<path d="M40.906 24.4316C41.8025 24.4125 42.3518 24.8961 42.3897 25.8062C42.4276 26.7799 41.9035 27.3399 40.9249 27.3399C40.0157 27.3399 39.5675 26.7863 39.4854 25.8953C39.5549 25.0043 39.9968 24.4507 40.906 24.4316Z" fill="#446381"/>
<path d="M48.8866 8.05051C49.8589 8.03778 50.4018 8.58509 50.3703 9.56515C50.345 10.4752 49.8084 10.9716 48.9055 10.9589C47.9963 10.9462 47.5481 10.4116 47.4597 9.43787C47.5607 8.64237 47.9711 8.06324 48.8866 8.05051Z" fill="#446381"/>
<path d="M57.2269 1.81177e-05C58.1297 0.0191103 58.6475 0.534598 58.6475 1.44466C58.6475 2.43108 58.0792 2.95294 57.1132 2.90839C56.2041 2.86384 55.7811 2.29107 55.7432 1.38102C55.8505 0.502778 56.324 -0.019074 57.2269 1.81177e-05Z" fill="#446381"/>
<path d="M40.9248 40.4881C41.815 40.469 42.3706 40.9463 42.4275 41.85C42.4906 42.8046 42.0234 43.4219 41.0448 43.4728C40.0851 43.5237 39.5484 43.0083 39.4474 42.0409C39.4916 41.08 39.9462 40.5008 40.9248 40.4881Z" fill="#446381"/>
<path d="M42.4025 33.7421C42.4909 34.7031 42.049 35.3268 41.064 35.4032C40.1801 35.4732 39.5866 35.034 39.4919 34.1176C39.3909 33.1503 39.8644 32.5839 40.8431 32.4312C41.7017 32.4566 42.3205 32.8194 42.4025 33.7421Z" fill="#446381"/>
<path d="M40.9756 48.8187C41.8721 48.825 42.4025 49.3278 42.434 50.2315C42.4719 51.1988 41.9731 51.7779 41.0008 51.8098C40.0285 51.8352 39.5234 51.2943 39.454 50.3269C39.5108 49.366 40.0033 48.8123 40.9756 48.8187Z" fill="#446381"/>
<path d="M50.4207 17.5265C50.4333 18.4239 49.9598 18.9839 49.0632 19.0412C48.1162 19.1048 47.5037 18.6275 47.4532 17.6411C47.4027 16.6738 47.9141 16.1328 48.8738 16.0374C49.8335 16.0755 50.4017 16.5401 50.4207 17.5265Z" fill="#446381"/>
<path d="M57.0882 7.98701C58.0352 7.92337 58.6477 8.40703 58.7108 9.38073C58.7739 10.3353 58.2941 10.9526 57.3281 11.0163C56.3811 11.0799 55.8128 10.5899 55.6865 9.6162C55.6865 8.67432 56.1159 8.05065 57.0882 7.98701Z" fill="#446381"/>
<path d="M47.3651 25.978C47.3209 24.9852 47.927 24.3297 48.9119 24.3042C49.8337 24.2788 50.4525 24.877 50.503 25.7934C50.5535 26.7926 49.9348 27.3526 48.9561 27.4926C48.0407 27.3972 47.4093 26.8944 47.3651 25.978Z" fill="#446381"/>
<path d="M48.9309 32.323C49.8464 32.3102 50.4714 32.9084 50.5346 33.8185C50.5977 34.8177 49.9916 35.4859 49.0193 35.5432C48.0344 35.6004 47.4788 34.9577 47.3083 33.9585C47.4156 32.9912 47.9397 32.3357 48.9309 32.323Z" fill="#446381"/>
<path d="M57.1702 15.891C58.1551 15.9292 58.7423 16.5019 58.8496 17.4756C58.9506 18.3539 58.0541 19.2767 57.1765 19.2067C56.1979 19.1303 55.6738 18.5194 55.5539 17.6284C55.5476 16.712 56.3368 15.8592 57.1702 15.891Z" fill="#446381"/>
<path d="M48.8929 48.6595C49.8778 48.6913 50.465 49.2641 50.585 50.2378C50.686 51.1097 49.7894 52.0388 48.9182 51.9752C47.9395 51.8988 47.4155 51.2942 47.2892 50.4032C47.2766 49.4868 48.0595 48.634 48.8929 48.6595Z" fill="#446381"/>
<path d="M48.9687 43.6256C47.9901 43.6447 47.3966 43.021 47.2893 42.0473C47.1946 41.1691 48.0911 40.2463 48.9687 40.3227C49.9473 40.4054 50.4714 41.01 50.5977 41.9837C50.4714 42.951 49.9473 43.6065 48.9687 43.6256Z" fill="#446381"/>
<path d="M58.8803 25.889C58.8866 26.8754 58.2742 27.5182 57.3082 27.5691C56.2602 27.6263 55.5846 27.0027 55.5341 25.9526C55.4836 24.8898 56.1528 24.3298 57.1756 24.1643C58.1984 24.2916 58.8677 24.8262 58.8803 25.889Z" fill="#446381"/>
<path d="M57.2518 32.234C58.2936 32.2722 58.925 32.934 58.8934 33.9841C58.8618 35.0342 58.2052 35.6642 57.1571 35.6387C56.1091 35.6133 55.585 34.9196 55.4777 33.8823C55.6482 32.864 56.1975 32.1958 57.2518 32.234Z" fill="#446381"/>
<path d="M57.2077 40.2653C58.262 40.2717 58.8555 40.889 58.9187 41.9454C58.9755 42.9573 58.1358 43.7783 57.1382 43.7083C56.0775 43.6319 55.5598 42.9891 55.4714 41.9327C55.604 40.9145 56.1407 40.2526 57.2077 40.2653Z" fill="#446381"/>
<path d="M58.9189 50.2696C58.9063 51.3324 58.3381 51.9561 57.29 52.0452C56.2924 52.1279 55.4527 51.307 55.4969 50.3014C55.5411 49.2259 56.1662 48.6977 57.0122 48.5895C58.1423 48.5768 58.9252 49.315 58.9189 50.2696Z" fill="#446381"/>
</g>
<g clip-path="url(#clip2_1658_256)">
<path d="M89.8208 57.2275C88.9496 57.323 88.3687 57.7621 88.3687 58.6658C88.3624 59.5568 88.9117 60.0977 89.7956 60.0914C90.6164 60.0914 91.1341 59.5759 91.1783 58.7613C91.2288 57.8576 90.6732 57.3803 89.8208 57.2275Z" fill="#446381"/>
<path d="M91.071 91.5615C91.0079 92.3125 90.4838 92.8025 89.7262 92.7579C88.9117 92.7134 88.4066 92.1661 88.4761 91.3324C88.5392 90.5814 89.0633 90.1805 89.8146 90.1105C90.6227 90.2569 91.1404 90.7214 91.071 91.5615Z" fill="#446381"/>
<path d="M81.8656 108.846C81.0449 108.884 80.5082 108.375 80.4829 107.548C80.464 106.784 80.9565 106.269 81.7015 106.231C82.5286 106.186 82.9832 106.714 83.1094 107.523C83.0274 108.286 82.617 108.808 81.8656 108.846Z" fill="#446381"/>
<path d="M88.5579 99.4275C88.5958 98.632 89.0945 98.2184 89.8648 98.2693C90.5783 98.3138 90.9886 98.7657 90.9823 99.4848C90.9823 100.28 90.5151 100.681 89.7449 100.732C88.9683 100.649 88.52 100.217 88.5579 99.4275Z" fill="#446381"/>
<path d="M97.738 59.9385C96.9614 59.9258 96.4942 59.4421 96.5006 58.6657C96.5069 57.8829 96.9867 57.412 97.7633 57.4184C98.5399 57.4247 98.9502 57.9148 99.0134 58.6912C98.9439 59.4676 98.5209 59.9449 97.738 59.9385Z" fill="#446381"/>
<path d="M107.12 75.0723C107.101 75.7278 106.691 76.1542 106.047 76.1542C105.327 76.1542 104.891 75.696 104.936 74.9705C104.98 74.3277 105.428 73.984 106.135 73.9268C106.685 74.0795 107.139 74.4041 107.12 75.0723Z" fill="#446381"/>
<path d="M106.142 59.7986C105.416 59.8686 104.955 59.455 104.904 58.7231C104.86 58.0549 105.264 57.6157 105.908 57.5521C106.64 57.4757 107.038 57.9212 107.164 58.6085C107.127 59.2895 106.792 59.7413 106.142 59.7986Z" fill="#446381"/>
<path d="M104.961 83.0783C104.967 82.4801 105.365 82.0728 105.946 82.0346C106.609 81.99 107.051 82.4037 107.082 83.0592C107.12 83.7274 106.672 84.0838 106.028 84.1984C105.39 84.1029 104.955 83.7529 104.961 83.0783Z" fill="#446381"/>
<path d="M104.904 67.0282C104.911 66.2963 105.353 65.8635 106.079 65.889C106.729 65.9145 107.139 66.3409 107.139 67.0027C107.139 67.7409 106.678 68.1037 105.971 68.1737C105.334 68.0464 104.904 67.6964 104.904 67.0282Z" fill="#446381"/>
<path d="M97.8389 108.566C97.1886 108.611 96.7593 108.204 96.7341 107.548C96.7151 106.956 97.1066 106.549 97.6748 106.511C98.3251 106.466 98.6913 106.88 98.8049 107.554C98.7229 108.108 98.4135 108.528 97.8389 108.566Z" fill="#446381"/>
<path d="M88.6339 107.58C88.615 106.861 89.0191 106.415 89.7325 106.39C90.446 106.364 90.8816 106.772 90.9132 107.497C90.9447 108.223 90.5154 108.604 89.7325 108.725C89.139 108.624 88.6466 108.324 88.6339 107.58Z" fill="#446381"/>
<path d="M96.6646 99.4975C96.6646 98.842 97.0749 98.4092 97.7189 98.3901C98.4387 98.3774 98.8806 98.8293 98.8491 99.5548C98.8238 100.204 98.3756 100.548 97.7316 100.618C97.0939 100.503 96.6646 100.153 96.6646 99.4975Z" fill="#446381"/>
<path d="M96.6145 91.5042C96.583 90.7851 96.9807 90.3332 97.6942 90.2951C98.4076 90.2569 98.8496 90.6642 98.8938 91.3833C98.938 92.1088 98.5086 92.497 97.8268 92.6116C97.1133 92.5734 96.6524 92.2297 96.6145 91.5042Z" fill="#446381"/>
<path d="M105.011 91.3134C105.081 90.7343 105.498 90.3588 106.078 90.4097C106.716 90.467 107.114 90.8997 107.032 91.5616C106.962 92.1407 106.546 92.4462 105.971 92.4844C105.34 92.3507 104.929 91.9816 105.011 91.3134Z" fill="#446381"/>
<path d="M106.129 100.388C105.592 100.439 105.207 100.197 105.144 99.6311C105.081 99.0265 105.353 98.6256 105.99 98.5937C106.539 98.5683 106.855 98.8674 106.918 99.4211C106.925 99.9684 106.685 100.331 106.129 100.388Z" fill="#446381"/>
<path d="M106.849 107.408C106.931 107.955 106.628 108.318 106.091 108.375C105.611 108.426 105.277 108.134 105.207 107.669C105.125 107.115 105.441 106.803 105.952 106.689C106.445 106.695 106.779 106.937 106.849 107.408Z" fill="#446381"/>
<path d="M114.898 74.9578C114.943 75.4987 114.703 75.8869 114.141 75.9442C113.535 76.0078 113.143 75.7278 113.118 75.0787C113.099 74.525 113.396 74.2068 113.939 74.1495C114.494 74.1495 114.848 74.3977 114.898 74.9578Z" fill="#446381"/>
<path d="M114.09 67.9064C113.547 67.9446 113.175 67.6836 113.124 67.1236C113.074 66.5126 113.364 66.1244 114.002 66.1117C114.557 66.099 114.854 66.4108 114.911 67.0409C114.886 67.5054 114.652 67.8746 114.09 67.9064Z" fill="#446381"/>
<path d="M114.835 91.3324C114.899 91.8797 114.595 92.2361 114.046 92.2743C113.56 92.3124 113.238 92.007 113.181 91.5424C113.118 90.9951 113.44 90.6832 113.958 90.5814C114.457 90.6069 114.785 90.8678 114.835 91.3324Z" fill="#446381"/>
<path d="M114.065 59.5759C113.522 59.6013 113.162 59.334 113.124 58.774C113.08 58.1567 113.389 57.7876 114.027 57.7876C114.583 57.7876 114.873 58.1058 114.911 58.6722C114.892 59.2067 114.627 59.544 114.065 59.5759Z" fill="#446381"/>
<path d="M114.874 83.1356C114.861 83.6383 114.583 83.9438 114.091 83.9756C113.535 84.0138 113.181 83.7274 113.156 83.1547C113.131 82.5819 113.447 82.2828 114.084 82.2255C114.545 82.2892 114.886 82.5501 114.874 83.1356Z" fill="#446381"/>
<path d="M113.276 99.5356C113.244 99.1029 113.528 98.7974 113.932 98.7592C114.419 98.7147 114.741 99.0202 114.741 99.5165C114.734 99.9366 114.438 100.178 113.97 100.248C113.61 100.172 113.307 99.962 113.276 99.5356Z" fill="#446381"/>
<path d="M121.951 66.2709C122.38 66.239 122.683 66.5254 122.721 66.9327C122.765 67.4227 122.462 67.7473 121.97 67.7473C121.553 67.741 121.313 67.4418 121.25 67.0218C121.294 66.5954 121.534 66.309 121.951 66.2709Z" fill="#446381"/>
<path d="M122.071 59.4104C121.642 59.4677 121.332 59.1877 121.276 58.7867C121.206 58.2967 121.503 57.9658 121.989 57.9403C122.412 57.9212 122.652 58.2203 122.74 58.6467C122.715 59.0668 122.475 59.3595 122.071 59.4104Z" fill="#446381"/>
<path d="M113.989 108.121C113.674 108.114 113.465 107.936 113.434 107.618C113.402 107.243 113.573 106.982 113.964 106.956C114.349 106.931 114.558 107.134 114.596 107.535C114.57 107.917 114.381 108.134 113.989 108.121Z" fill="#446381"/>
<path d="M121.926 83.6892C121.604 83.6638 121.433 83.4601 121.42 83.1419C121.408 82.7537 121.61 82.5246 122.001 82.531C122.393 82.531 122.576 82.7601 122.582 83.1356C122.532 83.5365 122.304 83.7211 121.926 83.6892Z" fill="#446381"/>
<path d="M122.614 74.9577C122.658 75.3968 122.456 75.6832 121.989 75.6896C121.604 75.6896 121.389 75.4796 121.37 75.0914C121.351 74.7031 121.547 74.4868 121.976 74.4231C122.298 74.4231 122.576 74.5631 122.614 74.9577Z" fill="#446381"/>
<path d="M91.1529 75.0023C91.1781 75.8869 90.6415 76.4469 89.7575 76.4533C88.9431 76.4597 88.4191 75.9315 88.3875 75.1169C88.3559 74.2195 88.9241 73.755 89.7639 73.6277C90.5783 73.7486 91.1339 74.1813 91.1529 75.0023Z" fill="#446381"/>
<path d="M88.413 83.1991C88.3499 82.3782 88.855 81.8118 89.6442 81.7418C90.5218 81.659 91.0963 82.2063 91.1279 83.0846C91.1595 83.9055 90.6102 84.351 89.821 84.5101C89.0255 84.4338 88.4762 84.0074 88.413 83.1991Z" fill="#446381"/>
<path d="M97.713 84.3319C96.9996 84.3128 96.5703 83.8865 96.545 83.1737C96.5197 82.3909 96.9491 81.9072 97.732 81.8881C98.5149 81.8691 98.9253 82.3336 98.9884 83.1164C98.9126 83.8992 98.4959 84.351 97.713 84.3319Z" fill="#446381"/>
<path d="M99.0073 66.9964C99.0136 67.7791 98.5464 68.2628 97.7698 68.2692C96.9932 68.2819 96.5134 67.8046 96.5071 67.0218C96.4945 66.239 96.968 65.8126 97.7824 65.7235C98.5085 65.8063 99.001 66.2072 99.0073 66.9964Z" fill="#446381"/>
<path d="M97.7444 76.3196C96.9678 76.3069 96.5006 75.8296 96.5069 75.0468C96.5132 74.2641 96.9931 73.7931 97.7696 73.7995C98.5462 73.8058 98.9566 74.2959 99.0197 75.0723C98.944 75.8551 98.521 76.326 97.7444 76.3196Z" fill="#446381"/>
<path d="M83.1534 99.4529C83.1786 100.274 82.6609 100.821 81.8654 100.859C80.9878 100.898 80.4259 100.344 80.4322 99.4593C80.4385 98.6447 80.9941 98.2055 81.7896 98.0846C82.5788 98.1992 83.1281 98.6319 83.1534 99.4529Z" fill="#446381"/>
<path d="M72.4203 107.605C72.395 106.714 72.9254 106.154 73.8093 106.148C74.6174 106.135 75.1478 106.657 75.1857 107.472C75.2236 108.369 74.6616 108.834 73.7399 108.974C73.0264 108.827 72.4456 108.433 72.4203 107.605Z" fill="#446381"/>
<path d="M91.1531 66.9008C91.2163 67.7854 90.6859 68.3709 89.8083 68.4027C88.9307 68.4282 88.3814 67.8682 88.3877 66.9772C88.3941 66.1562 88.937 65.7171 89.7262 65.5835C90.5407 65.6662 91.0963 66.0926 91.1531 66.9008Z" fill="#446381"/>
<path d="M81.7392 92.8598C80.9247 92.8343 80.407 92.3188 80.3817 91.5042C80.3565 90.6133 80.8805 90.0532 81.7644 90.0341C82.661 90.015 83.1092 90.5878 83.2229 91.4597C83.0966 92.3252 82.6357 92.8852 81.7392 92.8598Z" fill="#446381"/>
<path d="M81.8338 84.5611C80.9372 84.5802 80.3879 84.0965 80.3501 83.1865C80.3122 82.2128 80.8362 81.6527 81.8148 81.6527C82.724 81.6527 83.1723 82.2064 83.2543 83.0974C83.1849 83.9883 82.7429 84.542 81.8338 84.5611Z" fill="#446381"/>
<path d="M73.8537 100.942C72.8814 100.955 72.3384 100.408 72.37 99.4275C72.3952 98.5175 72.9319 98.0211 73.8347 98.0338C74.7439 98.0465 75.1922 98.5811 75.2806 99.5548C75.1795 100.35 74.7691 100.929 73.8537 100.942Z" fill="#446381"/>
<path d="M65.5133 108.993C64.6105 108.974 64.0928 108.458 64.0928 107.548C64.0928 106.562 64.661 106.04 65.627 106.084C66.5362 106.129 66.9592 106.702 66.9971 107.612C66.8897 108.49 66.4162 109.012 65.5133 108.993Z" fill="#446381"/>
<path d="M81.8149 68.5046C80.9247 68.5237 80.3691 68.0464 80.3123 67.1427C80.2491 66.1881 80.7164 65.5708 81.695 65.5198C82.6546 65.4689 83.1913 65.9844 83.2923 66.9518C83.2481 67.9127 82.7935 68.4918 81.8149 68.5046Z" fill="#446381"/>
<path d="M80.3377 75.2505C80.2493 74.2896 80.6913 73.6659 81.6762 73.5895C82.5601 73.5195 83.1536 73.9586 83.2483 74.8751C83.3493 75.8424 82.8758 76.4088 81.8972 76.5615C81.0385 76.5361 80.4198 76.1733 80.3377 75.2505Z" fill="#446381"/>
<path d="M81.7647 60.174C80.8681 60.1677 80.3378 59.6649 80.3062 58.7612C80.2683 57.7939 80.7671 57.2147 81.7394 57.1829C82.7117 57.1575 83.2168 57.6984 83.2863 58.6657C83.2294 59.6267 82.737 60.1804 81.7647 60.174Z" fill="#446381"/>
<path d="M72.3191 91.466C72.3065 90.5687 72.78 90.0086 73.6765 89.9514C74.6236 89.8877 75.236 90.365 75.2865 91.3515C75.337 92.3188 74.8256 92.8597 73.8659 92.9552C72.9063 92.917 72.338 92.4524 72.3191 91.466Z" fill="#446381"/>
<path d="M65.6521 101.006C64.705 101.069 64.0926 100.586 64.0294 99.6121C63.9663 98.6575 64.4461 98.0401 65.4121 97.9765C66.3592 97.9129 66.9274 98.4029 67.0537 99.3766C67.0537 100.318 66.6244 100.942 65.6521 101.006Z" fill="#446381"/>
<path d="M75.3751 83.0146C75.4193 84.0074 74.8132 84.6628 73.8283 84.6883C72.9065 84.7138 72.2878 84.1155 72.2373 83.1991C72.1867 82.2 72.8055 81.6399 73.7841 81.4999C74.6996 81.5954 75.3309 82.0981 75.3751 83.0146Z" fill="#446381"/>
<path d="M73.8093 76.6697C72.8939 76.6825 72.2688 76.0842 72.2057 75.1742C72.1425 74.175 72.7486 73.5068 73.7209 73.4495C74.7059 73.3922 75.2615 74.035 75.4319 75.0342C75.3246 76.0015 74.8006 76.657 73.8093 76.6697Z" fill="#446381"/>
<path d="M65.5701 93.1017C64.5851 93.0635 63.998 92.4907 63.8906 91.517C63.7896 90.6388 64.6861 89.716 65.5637 89.786C66.5424 89.8624 67.0664 90.4733 67.1864 91.3643C67.1927 92.2807 66.4035 93.1335 65.5701 93.1017Z" fill="#446381"/>
<path d="M73.8473 60.3332C72.8624 60.3014 72.2752 59.7286 72.1553 58.7549C72.0543 57.883 72.9508 56.9539 73.8221 57.0175C74.8007 57.0939 75.3247 57.6985 75.451 58.5894C75.4636 59.5059 74.6807 60.3586 73.8473 60.3332Z" fill="#446381"/>
<path d="M73.7715 65.3671C74.7501 65.348 75.3436 65.9717 75.4509 66.9453C75.5456 67.8236 74.6491 68.7464 73.7715 68.67C72.7929 68.5873 72.2689 67.9827 72.1426 67.009C72.2689 66.0417 72.7929 65.3862 73.7715 65.3671Z" fill="#446381"/>
<path d="M63.8594 83.1037C63.8531 82.1173 64.4655 81.4745 65.4315 81.4236C66.4796 81.3663 67.1552 81.99 67.2057 83.0401C67.2562 84.1029 66.5869 84.6629 65.5641 84.8284C64.5413 84.7011 63.8721 84.1665 63.8594 83.1037Z" fill="#446381"/>
<path d="M65.4884 76.7587C64.4466 76.7205 63.8153 76.0587 63.8468 75.0086C63.8784 73.9585 64.535 73.3285 65.5831 73.3539C66.6312 73.3794 67.1552 74.0731 67.2625 75.1104C67.0921 76.1287 66.5428 76.7969 65.4884 76.7587Z" fill="#446381"/>
<path d="M65.5321 68.7274C64.4777 68.721 63.8842 68.1037 63.8211 67.0472C63.7643 66.0354 64.604 65.2144 65.6015 65.2844C66.6622 65.3608 67.18 66.0035 67.2683 67.06C67.1358 68.0782 66.5991 68.7401 65.5321 68.7274Z" fill="#446381"/>
<path d="M63.8213 58.7231C63.834 57.6603 64.4022 57.0366 65.4503 56.9475C66.4478 56.8648 67.2875 57.6857 67.2433 58.6912C67.1991 59.7668 66.5741 60.295 65.7281 60.4032C64.5979 60.4159 63.815 59.6777 63.8213 58.7231Z" fill="#446381"/>
</g>
<g clip-path="url(#clip3_1658_256)">
<path d="M32.9194 57.2275C33.7907 57.323 34.3715 57.7621 34.3715 58.6658C34.3778 59.5568 33.8286 60.0977 32.9446 60.0914C32.1239 60.0914 31.6061 59.5759 31.5619 58.7613C31.5114 57.8576 32.067 57.3803 32.9194 57.2275Z" fill="#446381"/>
<path d="M31.6692 91.5615C31.7324 92.3125 32.2564 92.8025 33.014 92.7579C33.8285 92.7134 34.3336 92.1661 34.2642 91.3324C34.201 90.5814 33.677 90.1805 32.9257 90.1105C32.1175 90.2569 31.5998 90.7214 31.6692 91.5615Z" fill="#446381"/>
<path d="M40.8746 108.846C41.6954 108.884 42.232 108.375 42.2573 107.548C42.2762 106.784 41.7838 106.269 41.0387 106.231C40.2117 106.186 39.7571 106.714 39.6308 107.523C39.7129 108.286 40.1233 108.808 40.8746 108.846Z" fill="#446381"/>
<path d="M34.1819 99.4275C34.144 98.632 33.6452 98.2184 32.8749 98.2693C32.1615 98.3138 31.7511 98.7657 31.7574 99.4848C31.7574 100.28 32.2246 100.681 32.9949 100.732C33.7715 100.649 34.2197 100.217 34.1819 99.4275Z" fill="#446381"/>
<path d="M25.0017 59.9385C25.7783 59.9258 26.2455 59.4421 26.2392 58.6657C26.2329 57.8829 25.753 57.412 24.9765 57.4184C24.1999 57.4247 23.7895 57.9148 23.7264 58.6912C23.7958 59.4676 24.2188 59.9449 25.0017 59.9385Z" fill="#446381"/>
<path d="M15.62 75.0723C15.639 75.7278 16.0494 76.1542 16.6933 76.1542C17.4131 76.1542 17.8487 75.696 17.8045 74.9705C17.7603 74.3277 17.3121 73.984 16.605 73.9268C16.0557 74.0795 15.6011 74.4041 15.62 75.0723Z" fill="#446381"/>
<path d="M16.5986 59.7986C17.3247 59.8686 17.7856 59.455 17.8361 58.7231C17.8803 58.0549 17.4762 57.6157 16.8322 57.5521C16.0998 57.4757 15.702 57.9212 15.5758 58.6085C15.6136 59.2895 15.9483 59.7413 16.5986 59.7986Z" fill="#446381"/>
<path d="M17.7792 83.0783C17.7729 82.4801 17.3752 82.0728 16.7943 82.0346C16.1314 81.99 15.6894 82.4037 15.6578 83.0592C15.62 83.7274 16.0682 84.0838 16.7122 84.1984C17.3499 84.1029 17.7855 83.7529 17.7792 83.0783Z" fill="#446381"/>
<path d="M17.8359 67.0282C17.8296 66.2963 17.3877 65.8635 16.6616 65.889C16.0113 65.9145 15.6009 66.3409 15.6009 67.0027C15.6009 67.7409 16.0618 68.1037 16.7689 68.1737C17.4066 68.0464 17.8359 67.6964 17.8359 67.0282Z" fill="#446381"/>
<path d="M24.9008 108.566C25.5511 108.611 25.9804 108.204 26.0057 107.548C26.0246 106.956 25.6332 106.549 25.065 106.511C24.4147 106.466 24.0485 106.88 23.9348 107.554C24.0169 108.108 24.3263 108.528 24.9008 108.566Z" fill="#446381"/>
<path d="M34.1063 107.58C34.1252 106.861 33.7212 106.415 33.0077 106.39C32.2943 106.364 31.8586 106.772 31.8271 107.497C31.7955 108.223 32.2248 108.604 33.0077 108.725C33.6012 108.624 34.0937 108.324 34.1063 107.58Z" fill="#446381"/>
<path d="M26.0752 99.4975C26.0752 98.842 25.6648 98.4092 25.0208 98.3901C24.3011 98.3774 23.8591 98.8293 23.8907 99.5548C23.9159 100.204 24.3642 100.548 25.0082 100.618C25.6459 100.503 26.0752 100.153 26.0752 99.4975Z" fill="#446381"/>
<path d="M26.1257 91.5042C26.1573 90.7851 25.7595 90.3332 25.0461 90.2951C24.3326 90.2569 23.8907 90.6642 23.8465 91.3833C23.8023 92.1088 24.2316 92.497 24.9135 92.6116C25.6269 92.5734 26.0878 92.2297 26.1257 91.5042Z" fill="#446381"/>
<path d="M17.7283 91.3134C17.6589 90.7343 17.2422 90.3588 16.6613 90.4097C16.0237 90.467 15.6259 90.8997 15.708 91.5616C15.7774 92.1407 16.1941 92.4462 16.7687 92.4844C17.4 92.3507 17.8104 91.9816 17.7283 91.3134Z" fill="#446381"/>
<path d="M16.6111 100.388C17.1478 100.439 17.5329 100.197 17.5961 99.6311C17.6592 99.0265 17.3877 98.6256 16.75 98.5937C16.2007 98.5683 15.8851 98.8674 15.8219 99.4211C15.8156 99.9684 16.0555 100.331 16.6111 100.388Z" fill="#446381"/>
<path d="M15.8914 107.408C15.8093 107.955 16.1124 108.318 16.6491 108.375C17.1289 108.426 17.4635 108.134 17.533 107.669C17.615 107.115 17.2994 106.803 16.788 106.689C16.2955 106.695 15.9609 106.937 15.8914 107.408Z" fill="#446381"/>
<path d="M7.84125 74.9578C7.79706 75.4987 8.03698 75.8869 8.59889 75.9442C9.20501 76.0078 9.59645 75.7278 9.6217 75.0787C9.64065 74.525 9.34391 74.2068 8.80093 74.1495C8.24533 74.1495 7.89176 74.3977 7.84125 74.9578Z" fill="#446381"/>
<path d="M8.64949 67.9064C9.19246 67.9446 9.56497 67.6836 9.61548 67.1236C9.66599 66.5126 9.37556 66.1244 8.73788 66.1117C8.18228 66.099 7.88554 66.4108 7.82872 67.0409C7.85397 67.5054 8.08757 67.8746 8.64949 67.9064Z" fill="#446381"/>
<path d="M7.90436 91.3325C7.84123 91.8798 8.14428 92.2362 8.69357 92.2744C9.17972 92.3126 9.50171 92.0071 9.55854 91.5425C9.62167 90.9952 9.29968 90.6834 8.78196 90.5815C8.28318 90.607 7.95487 90.8679 7.90436 91.3325Z" fill="#446381"/>
<path d="M8.67474 59.5759C9.21772 59.6013 9.5776 59.334 9.61548 58.774C9.65968 58.1567 9.35031 57.7876 8.71263 57.7876C8.15702 57.7876 7.86659 58.1058 7.82871 58.6722C7.84765 59.2067 8.11282 59.544 8.67474 59.5759Z" fill="#446381"/>
<path d="M7.86674 83.1356C7.87936 83.6383 8.15716 83.9438 8.64963 83.9756C9.20523 84.0138 9.55879 83.7274 9.58405 83.1547C9.6093 82.5819 9.29362 82.2828 8.65594 82.2255C8.19505 82.2892 7.85411 82.5501 7.86674 83.1356Z" fill="#446381"/>
<path d="M9.46392 99.5356C9.49548 99.1029 9.21137 98.7974 8.80729 98.7592C8.32114 98.7147 7.99915 99.0202 7.99915 99.5165C8.00546 99.9366 8.3022 100.178 8.76941 100.248C9.12929 100.172 9.43235 99.962 9.46392 99.5356Z" fill="#446381"/>
<path d="M0.788934 66.2709C0.359608 66.239 0.0565538 66.5254 0.0186721 66.9327C-0.0255232 67.4227 0.277532 67.7473 0.769994 67.7473C1.18669 67.741 1.42661 67.4418 1.48975 67.0218C1.44555 66.5954 1.20563 66.309 0.788934 66.2709Z" fill="#446381"/>
<path d="M0.669056 59.4104C1.09838 59.4677 1.40775 59.1877 1.46457 58.7867C1.53402 58.2967 1.23729 57.9658 0.751136 57.9403C0.328123 57.9212 0.0882038 58.2203 -0.000186959 58.6467C0.0250676 59.0668 0.264984 59.3595 0.669056 59.4104Z" fill="#446381"/>
<path d="M8.75076 108.121C9.06645 108.114 9.2748 107.936 9.30637 107.618C9.33794 107.243 9.16747 106.982 8.77602 106.956C8.39088 106.931 8.18253 107.134 8.14465 107.535C8.1699 107.917 8.35931 108.134 8.75076 108.121Z" fill="#446381"/>
<path d="M0.814178 83.6892C1.13617 83.6638 1.30664 83.4601 1.31927 83.1419C1.33189 82.7537 1.12986 82.5246 0.738412 82.531C0.346967 82.531 0.163872 82.7601 0.157558 83.1356C0.208068 83.5365 0.435359 83.7211 0.814178 83.6892Z" fill="#446381"/>
<path d="M0.126049 74.9577C0.0818534 75.3968 0.283894 75.6832 0.751105 75.6896C1.13624 75.6896 1.3509 75.4796 1.36984 75.0914C1.38878 74.7031 1.19306 74.4868 0.763731 74.4231C0.441734 74.4231 0.163931 74.5631 0.126049 74.9577Z" fill="#446381"/>
<path d="M31.5869 75.0023C31.5616 75.8869 32.0983 76.4469 32.9822 76.4533C33.7967 76.4597 34.3207 75.9315 34.3523 75.1169C34.3838 74.2195 33.8156 73.755 32.9759 73.6277C32.1614 73.7486 31.6058 74.1813 31.5869 75.0023Z" fill="#446381"/>
<path d="M34.3272 83.1991C34.3903 82.3782 33.8853 81.8118 33.096 81.7418C32.2184 81.659 31.6439 82.2063 31.6123 83.0846C31.5808 83.9055 32.1301 84.351 32.9193 84.5101C33.7148 84.4338 34.2641 84.0074 34.3272 83.1991Z" fill="#446381"/>
<path d="M25.0272 84.3319C25.7407 84.3128 26.17 83.8865 26.1952 83.1737C26.2205 82.3909 25.7912 81.9072 25.0083 81.8881C24.2254 81.8691 23.815 82.3336 23.7518 83.1164C23.8276 83.8992 24.2443 84.351 25.0272 84.3319Z" fill="#446381"/>
<path d="M23.7329 66.9964C23.7266 67.7791 24.1938 68.2628 24.9704 68.2692C25.747 68.2819 26.2268 67.8046 26.2332 67.0218C26.2458 66.239 25.7723 65.8126 24.9578 65.7235C24.2317 65.8063 23.7393 66.2072 23.7329 66.9964Z" fill="#446381"/>
<path d="M24.9954 76.3196C25.772 76.3069 26.2392 75.8296 26.2328 75.0468C26.2265 74.2641 25.7467 73.7931 24.9701 73.7995C24.1935 73.8058 23.7831 74.2959 23.72 75.0723C23.7958 75.8551 24.2188 76.326 24.9954 76.3196Z" fill="#446381"/>
<path d="M39.5864 99.4529C39.5611 100.274 40.0788 100.821 40.8744 100.859C41.752 100.898 42.3139 100.344 42.3076 99.4593C42.3013 98.6447 41.7457 98.2055 40.9501 98.0846C40.1609 98.1992 39.6116 98.6319 39.5864 99.4529Z" fill="#446381"/>
<path d="M50.3199 107.605C50.3452 106.714 49.8148 106.154 48.9309 106.148C48.1228 106.135 47.5924 106.657 47.5546 107.472C47.5167 108.369 48.0786 108.834 49.0004 108.974C49.7138 108.827 50.2947 108.433 50.3199 107.605Z" fill="#446381"/>
<path d="M31.5871 66.9008C31.524 67.7854 32.0543 68.3709 32.9319 68.4027C33.8095 68.4282 34.3588 67.8682 34.3525 66.9772C34.3462 66.1562 33.8032 65.7171 33.014 65.5835C32.1995 65.6662 31.6439 66.0926 31.5871 66.9008Z" fill="#446381"/>
<path d="M41.0006 92.8598C41.815 92.8343 42.3328 92.3188 42.358 91.5042C42.3833 90.6133 41.8592 90.0532 40.9753 90.0341C40.0788 90.015 39.6305 90.5878 39.5169 91.4597C39.6431 92.3252 40.104 92.8852 41.0006 92.8598Z" fill="#446381"/>
<path d="M40.906 84.5611C41.8025 84.5802 42.3518 84.0965 42.3897 83.1865C42.4276 82.2128 41.9035 81.6527 40.9249 81.6527C40.0157 81.6527 39.5675 82.2064 39.4854 83.0974C39.5549 83.9883 39.9968 84.542 40.906 84.5611Z" fill="#446381"/>
<path d="M48.8866 100.942C49.8589 100.955 50.4018 100.408 50.3703 99.4275C50.345 98.5175 49.8084 98.0211 48.9055 98.0338C47.9963 98.0465 47.5481 98.5811 47.4597 99.5548C47.5607 100.35 47.9711 100.929 48.8866 100.942Z" fill="#446381"/>
<path d="M57.2269 108.993C58.1297 108.974 58.6475 108.458 58.6475 107.548C58.6475 106.562 58.0792 106.04 57.1132 106.084C56.2041 106.129 55.7811 106.702 55.7432 107.612C55.8505 108.49 56.324 109.012 57.2269 108.993Z" fill="#446381"/>
<path d="M40.9248 68.5046C41.815 68.5237 42.3706 68.0464 42.4275 67.1427C42.4906 66.1881 42.0234 65.5708 41.0448 65.5198C40.0851 65.4689 39.5484 65.9844 39.4474 66.9518C39.4916 67.9127 39.9462 68.4918 40.9248 68.5046Z" fill="#446381"/>
<path d="M42.4025 75.2505C42.4909 74.2896 42.049 73.6659 41.064 73.5895C40.1801 73.5195 39.5866 73.9586 39.4919 74.8751C39.3909 75.8424 39.8644 76.4088 40.8431 76.5615C41.7017 76.5361 42.3205 76.1733 42.4025 75.2505Z" fill="#446381"/>
<path d="M40.9756 60.174C41.8721 60.1677 42.4025 59.6649 42.434 58.7612C42.4719 57.7939 41.9731 57.2147 41.0008 57.1829C40.0285 57.1575 39.5234 57.6984 39.454 58.6657C39.5108 59.6267 40.0033 60.1804 40.9756 60.174Z" fill="#446381"/>
<path d="M50.4207 91.4661C50.4333 90.5688 49.9598 90.0088 49.0632 89.9515C48.1162 89.8879 47.5037 90.3652 47.4532 91.3516C47.4027 92.3189 47.9141 92.8599 48.8738 92.9553C49.8335 92.9171 50.4017 92.4526 50.4207 91.4661Z" fill="#446381"/>
<path d="M57.0882 101.006C58.0352 101.069 58.6477 100.586 58.7108 99.6121C58.7739 98.6575 58.2941 98.0401 57.3281 97.9765C56.3811 97.9129 55.8128 98.4029 55.6865 99.3766C55.6865 100.318 56.1159 100.942 57.0882 101.006Z" fill="#446381"/>
<path d="M47.3651 83.0146C47.3209 84.0074 47.927 84.6628 48.9119 84.6883C49.8337 84.7138 50.4525 84.1155 50.503 83.1991C50.5535 82.2 49.9348 81.6399 48.9561 81.4999C48.0407 81.5954 47.4093 82.0981 47.3651 83.0146Z" fill="#446381"/>
<path d="M48.9309 76.6697C49.8464 76.6825 50.4714 76.0842 50.5346 75.1742C50.5977 74.175 49.9916 73.5068 49.0193 73.4495C48.0344 73.3922 47.4788 74.035 47.3083 75.0342C47.4156 76.0015 47.9397 76.657 48.9309 76.6697Z" fill="#446381"/>
<path d="M57.1702 93.1017C58.1551 93.0635 58.7423 92.4907 58.8496 91.517C58.9506 90.6388 58.0541 89.716 57.1765 89.786C56.1979 89.8624 55.6738 90.4733 55.5539 91.3643C55.5476 92.2807 56.3368 93.1335 57.1702 93.1017Z" fill="#446381"/>
<path d="M48.8929 60.3332C49.8778 60.3014 50.465 59.7286 50.585 58.7549C50.686 57.883 49.7894 56.9539 48.9182 57.0175C47.9395 57.0939 47.4155 57.6985 47.2892 58.5894C47.2766 59.5059 48.0595 60.3586 48.8929 60.3332Z" fill="#446381"/>
<path d="M48.9687 65.3671C47.9901 65.348 47.3966 65.9717 47.2893 66.9453C47.1946 67.8236 48.0911 68.7464 48.9687 68.67C49.9473 68.5873 50.4714 67.9827 50.5977 67.009C50.4714 66.0417 49.9473 65.3862 48.9687 65.3671Z" fill="#446381"/>
<path d="M58.8803 83.1037C58.8866 82.1173 58.2742 81.4745 57.3082 81.4236C56.2602 81.3663 55.5846 81.99 55.5341 83.0401C55.4836 84.1029 56.1528 84.6629 57.1756 84.8284C58.1984 84.7011 58.8677 84.1665 58.8803 83.1037Z" fill="#446381"/>
<path d="M57.2518 76.7587C58.2936 76.7205 58.925 76.0587 58.8934 75.0086C58.8618 73.9585 58.2052 73.3285 57.1571 73.3539C56.1091 73.3794 55.585 74.0731 55.4777 75.1104C55.6482 76.1287 56.1975 76.7969 57.2518 76.7587Z" fill="#446381"/>
<path d="M57.2077 68.7274C58.262 68.721 58.8555 68.1037 58.9187 67.0472C58.9755 66.0354 58.1358 65.2144 57.1382 65.2844C56.0775 65.3608 55.5598 66.0035 55.4714 67.06C55.604 68.0782 56.1407 68.7401 57.2077 68.7274Z" fill="#446381"/>
<path d="M58.9189 58.7231C58.9063 57.6603 58.3381 57.0366 57.29 56.9475C56.2924 56.8648 55.4527 57.6857 55.4969 58.6912C55.5411 59.7668 56.1662 60.295 57.0122 60.4032C58.1423 60.4159 58.9252 59.6777 58.9189 58.7231Z" fill="#446381"/>
</g>
<defs>
<clipPath id="clip0_1658_256">
<rect width="58.9191" height="52.0452" fill="white" transform="translate(63.8213)"/>
</clipPath>
<clipPath id="clip1_1658_256">
<rect width="58.9191" height="52.0452" fill="white" transform="matrix(-1 0 0 1 58.9189 0)"/>
</clipPath>
<clipPath id="clip2_1658_256">
<rect width="58.9191" height="52.0452" fill="white" transform="matrix(1 0 0 -1 63.8213 108.993)"/>
</clipPath>
<clipPath id="clip3_1658_256">
<rect width="58.9191" height="52.0452" fill="white" transform="matrix(-1 0 0 -1 58.9189 108.993)"/>
</clipPath>
</defs>
</svg>
