<svg width="568" height="585" viewBox="0 0 568 585" fill="none" xmlns="http://www.w3.org/2000/svg">
<path opacity="0.3" d="M328.589 583.673C457.224 583.673 561.503 479.393 561.503 350.758C561.503 222.123 457.224 117.843 328.589 117.843C199.953 117.843 95.6736 222.123 95.6736 350.758C95.6736 479.393 199.953 583.673 328.589 583.673Z" fill="#4E8FD3"/>
<path opacity="0.3" d="M275.918 580.673C404.554 580.673 508.833 476.393 508.833 347.758C508.833 219.123 404.554 114.843 275.918 114.843C147.283 114.843 43.0035 219.123 43.0035 347.758C43.0035 476.393 147.283 580.673 275.918 580.673Z" fill="#4E8FD3"/>
<path d="M303.496 582.673C432.131 582.673 536.411 478.393 536.411 349.758C536.411 221.123 432.131 116.843 303.496 116.843C174.86 116.843 70.5808 221.123 70.5808 349.758C70.5808 478.393 174.86 582.673 303.496 582.673Z" fill="url(#paint0_linear_39_2251)"/>
<path d="M428.326 86.6692C425.255 67.7329 418.773 51.5261 403.76 38.39C401.03 36.0017 394.889 40.949 397.448 43.508C413.996 59.3736 418.773 76.0922 419.284 101.341C419.455 110.724 419.114 121.642 418.09 133.584C417.237 142.796 426.62 142.284 427.644 136.654C429.35 125.224 430.203 97.7581 428.326 86.6692Z" fill="#EB8382"/>
<path d="M410.243 52.5498C408.878 50.3321 407.343 48.2849 405.637 46.2377C403.248 43.6787 400.178 41.461 400.519 37.8784C397.96 38.7314 395.742 41.6316 397.619 43.3375C414.167 59.2031 418.943 75.9217 419.455 101.17C419.626 110.553 419.284 121.471 418.261 133.413C418.09 136.313 418.773 138.19 419.967 139.384C424.232 130.001 423.891 117.718 424.061 108.165C424.232 94.8581 422.867 81.3809 418.432 68.7566C416.214 63.1269 413.484 57.6678 410.243 52.5498Z" fill="#C37A87"/>
<path d="M385.165 44.5316C365.717 20.8185 330.915 7.68245 285.365 24.9128C264.723 32.7603 249.881 44.8728 241.01 61.2502C229.068 83.2573 228.556 122.836 235.38 149.279C236.062 152.691 236.915 155.932 237.939 159.173C243.91 181.01 255.169 200.799 273.764 214.959C291.165 227.924 313.343 233.213 335.009 229.289C356.675 225.195 375.27 211.206 386.7 193.463C414.166 150.473 418.602 85.3044 385.165 44.5316Z" fill="#521E3F"/>
<path d="M537.987 456.819C536.451 447.948 534.404 439.247 531.845 430.547C528.604 419.799 521.268 411.952 517.344 401.545C514.956 395.404 516.321 386.703 514.103 380.562C511.715 374.42 505.232 371.691 502.844 365.549C500.455 359.408 501.991 350.025 499.432 344.054C494.825 333.818 489.708 323.582 483.907 314.029C474.183 297.993 461.047 281.274 444.67 271.209C443.134 270.185 441.599 269.332 440.064 268.479C429.487 261.485 415.327 256.878 400.656 250.737C388.031 245.448 338.387 234.359 293.008 234.359C251.041 234.53 212.657 245.448 208.904 246.472C180.926 254.149 172.396 254.831 146.977 277.35C136.911 286.221 127.017 295.263 116.61 303.622C111.322 307.887 102.28 307.887 96.8208 311.64C89.6557 316.758 85.9025 325.629 78.055 329.894C55.5361 342.007 30.117 342.86 15.6162 365.379C9.30411 375.103 3.50378 395.745 3.50378 407.346C3.50378 416.729 8.28053 425.258 15.275 431.229C29.0935 443.001 50.2476 444.024 67.478 443.342C92.5558 442.148 117.293 434.471 140.664 425.77C163.013 417.411 171.543 425.088 170.519 442.489C169.666 457.672 168.813 472.855 168.301 488.209C167.619 504.757 162.516 531.296 162.004 547.844C161.492 566.098 238.022 577.444 257.129 580.344C274.343 582.958 258.297 580.446 287.629 582.844C336.784 586.863 395.683 580.593 408.504 567.344C410.722 565.126 416.692 552.013 420.786 521.817C422.663 507.998 427.951 503.222 439.04 513.458C452.347 525.911 469.748 534.1 487.831 535.294C507.62 536.659 525.362 526.252 534.063 508.681C541.74 492.645 540.887 473.708 537.987 456.819Z" fill="#C5C7D2" fill-opacity="0.2"/>
<path d="M496.224 361.673C493.153 368.156 490.594 374.468 486.5 380.439C481.894 387.092 476.605 393.233 470.975 399.204C470.805 399.375 470.975 399.546 471.146 399.546C477.458 394.939 482.747 389.31 487.353 382.998C491.618 377.027 496.053 369.35 496.565 361.843C496.565 361.673 496.224 361.502 496.224 361.673Z" fill="#F5F5F5"/>
<path d="M274.106 290.875C270.864 284.392 266.941 279.445 259.605 278.25C252.269 277.056 244.592 279.786 237.939 282.515C225.485 287.804 212.861 295.651 203.819 306.57C196.996 314.758 257.728 324.482 267.794 324.482C287.071 324.653 279.565 302.134 274.106 290.875Z" fill="#FFA26E"/>
<path d="M277.006 308.788C275.812 305.034 274.788 299.746 269.67 299.234C268.476 299.063 265.235 299.234 263.017 299.916C259.946 300.94 260.799 302.987 261.652 304.864C263.358 308.617 265.405 311.858 270.182 312.37C273.594 312.882 278.029 311.858 277.006 308.788Z" fill="white"/>
<path d="M251.928 314.758C248.004 307.935 247.322 299.746 246.81 292.069C246.81 291.728 246.469 291.728 246.298 292.069C245.957 293.604 245.786 295.481 245.616 297.187C243.569 302.475 236.404 300.94 232.65 304.352C229.238 307.593 227.703 312.029 228.385 316.635C228.556 317.317 228.556 318 228.727 318.682C240.157 321.241 252.781 323.288 260.799 324.141C257.387 321.753 254.316 318.853 251.928 314.758Z" fill="#F4905D"/>
<path d="M333.132 238.331C320.849 236.966 308.225 236.454 295.942 236.966C272.058 237.819 261.481 258.632 280.759 276.203C305.154 298.722 347.804 301.452 366.74 272.791C373.394 262.726 374.929 247.202 353.945 241.572C346.268 239.525 337.909 238.842 333.132 238.331Z" fill="#F5F5F5"/>
<path d="M534.95 470.514C530.002 459.425 521.814 449.872 512.431 442.366C496.565 429.571 476.094 423.429 457.328 416.094C446.751 411.999 435.833 407.734 426.279 401.763C421.332 398.693 415.702 394.086 409.731 396.987C404.784 399.375 401.542 405.516 399.154 409.952C396.254 415.411 394.036 421.211 391.989 427.012C386.871 441.854 383.8 449.019 394.889 458.061C402.054 463.861 414.678 473.585 419.967 479.215C429.179 489.451 437.197 500.71 446.751 510.605C460.569 525.106 479.847 535.341 499.977 536.706C519.596 537.9 539.556 525.958 542.627 505.487C544.333 493.716 539.727 481.091 534.95 470.514Z" fill="#FFA26E"/>
<path d="M537.679 518.623C531.196 522.888 523.008 525.105 515.672 525.788C503.389 526.982 490.424 525.105 479.164 519.987C469.781 515.552 461.934 508.216 455.28 500.369C439.074 480.921 427.644 456.696 422.526 431.959C420.137 420.7 418.431 406.711 412.119 396.304C411.266 396.475 410.413 396.645 409.56 397.157C404.613 399.545 401.372 405.687 398.983 410.123C396.083 415.582 393.865 421.382 391.818 427.182C386.7 442.024 383.629 449.189 394.718 458.231C401.883 464.031 414.508 473.755 419.796 479.385C429.008 489.621 437.026 500.881 446.58 510.775C460.398 525.276 479.676 535.512 499.806 536.877C514.819 537.73 530.002 530.906 537.679 518.623Z" fill="#F4905D"/>
<path d="M187.442 324.653C162.705 330.965 129.951 336.424 104.361 338.813C81.3302 340.86 56.7641 340.86 37.1453 354.678C28.4449 360.82 21.1092 369.52 14.4558 377.88C7.97312 385.898 2.0022 395.281 0.296218 405.687C-0.897967 413.364 1.4904 422.406 7.97312 427.182C14.9676 432.3 24.0093 434.177 32.3686 435.371C40.2161 436.395 48.2342 436.736 56.2523 436.906C67.5118 437.248 77.9182 435.03 88.4953 431.106C100.267 426.841 180.789 394.428 188.807 386.751C194.948 380.78 198.531 372.591 200.407 364.402C205.696 342.736 199.725 321.582 187.442 324.653Z" fill="#FFA26E"/>
<path d="M188.977 386.58C191.025 384.704 192.731 382.315 194.266 380.097C193.754 379.074 193.242 377.88 192.56 376.856C183.177 359.626 150.081 349.39 118.009 372.421C111.185 377.368 105.384 383.68 98.9018 388.969C90.3719 395.963 80.3066 401.081 70.2413 405.517C54.7169 412.511 32.7098 419.506 16.8442 409.952C8.65551 405.005 6.43774 396.987 6.77894 388.457C3.70818 393.745 1.14921 399.375 0.296218 405.346C-0.897967 413.023 1.4904 422.065 7.97312 426.841C14.9676 431.959 24.0093 433.836 32.3686 435.03C40.2161 436.054 48.2342 436.395 56.2523 436.565C67.5118 436.907 77.9182 434.689 88.4953 430.765C100.437 426.671 180.959 394.257 188.977 386.58Z" fill="#F4905D"/>
<path d="M399.666 339.836C398.301 334.206 396.595 329.089 391.136 326.359C383.971 322.776 369.129 321.582 366.74 331.477C364.864 339.495 369.982 351.778 376.464 356.555C387.212 364.573 406.148 367.644 403.76 355.019C402.907 349.901 400.86 344.954 399.666 339.836Z" fill="#FFA26E"/>
<path d="M405.637 358.943C402.054 356.043 379.706 344.272 375.782 343.589C368.446 342.225 365.205 344.613 357.869 344.613C355.14 344.613 317.608 331.818 308.737 327.212C305.496 325.506 303.619 321.582 302.425 320.559C295.772 314.588 278.029 310.835 269.158 309.982C266.429 309.811 259.775 312.029 252.61 315.27C232.48 324.482 222.926 333.183 211.667 360.649C208.084 369.179 205.014 378.221 204.331 387.433C203.819 396.133 208.255 401.422 217.979 400.569C226.679 399.887 250.734 379.756 263.529 369.179C268.647 364.914 270.011 366.449 273.594 368.155C274.276 368.497 275.129 368.838 276.153 369.35C278.882 370.714 278.882 372.079 278.029 375.662C277.176 378.733 276.494 381.633 276.665 384.703C277.006 388.968 281.783 391.186 285.195 392.722C291.336 395.451 297.819 397.669 303.96 400.74C309.59 403.469 313.002 399.716 317.437 396.475C318.632 395.622 319.826 394.769 321.02 393.916C323.067 392.38 326.479 392.38 327.673 392.892C330.403 394.086 332.962 395.11 335.521 396.304C340.98 398.692 340.639 405.516 338.08 414.558C327.332 453.113 350.022 440.489 366.058 430.424C378.17 422.747 392.501 412.34 403.419 398.351C407.172 393.063 410.243 362.696 405.637 358.943Z" fill="#3C68CD"/>
<path d="M305.325 332.159C304.813 331.989 299.354 342.395 298.331 347.684C297.989 349.39 338.25 364.914 338.592 364.402C341.151 360.308 343.539 353.996 345.927 348.366C346.098 347.854 319.314 337.96 305.325 332.159Z" fill="#2453B2"/>
<path d="M402.395 399.204C406.148 388.457 405.807 376.856 396.595 368.838C388.918 362.014 377.317 360.649 367.423 361.332C355.31 362.185 345.415 367.985 336.033 375.15C330.744 379.244 325.797 383.851 319.826 387.262C312.32 391.698 305.325 391.869 297.478 388.798C294.066 387.433 290.654 385.727 287.753 383.339C284.512 380.78 285.194 376.174 286.047 372.591C287.412 366.108 289.801 360.137 290.142 353.484C290.824 343.419 284.512 335.06 276.323 329.942C254.487 316.464 230.262 326.188 220.879 341.372C217.638 346.49 214.738 352.802 211.496 360.479C207.914 369.009 204.843 378.05 204.161 387.262C203.649 395.963 208.084 401.251 217.808 400.398C226.509 399.716 250.563 379.586 263.358 369.009C268.476 364.744 269.841 366.279 273.423 367.985C274.106 368.326 274.959 368.667 275.982 369.179C278.712 370.544 278.712 371.909 277.859 375.491C277.006 378.562 276.323 381.462 276.494 384.533C276.835 388.798 281.612 391.016 285.024 392.551C291.165 395.281 297.648 397.498 303.79 400.569C309.419 403.299 312.831 399.546 317.267 396.304C318.461 395.451 319.655 394.598 320.849 393.745C322.897 392.21 326.309 392.21 327.503 392.722C330.232 393.916 332.791 394.939 335.35 396.134C340.809 398.522 340.468 405.346 337.909 414.388C327.162 452.943 349.851 440.318 365.887 430.253C377.658 422.747 391.477 412.511 402.395 399.204Z" fill="#2453B2"/>
<path d="M363.499 251.637C362.816 247.713 361.622 244.131 361.793 240.207C361.793 236.966 362.475 218.371 362.134 206.77C361.964 202.505 361.793 197.558 350.363 196.193C341.321 195.169 300.036 196.193 295.089 196.363C288.777 196.705 286.218 199.264 286.218 205.064C286.047 214.959 286.389 225.024 284 234.577C282.294 241.572 279.224 248.566 280.077 255.902C280.93 263.75 287.924 268.356 294.407 271.768C303.96 276.715 314.879 278.592 325.626 278.762C335.009 278.933 345.074 277.227 353.604 272.962C361.964 268.356 365.205 260.679 363.499 251.637Z" fill="#E87F52"/>
<path d="M312.32 261.191C302.937 246.519 310.102 226.901 318.12 213.253C322.385 205.917 328.015 200.117 334.327 195.34C318.802 195.34 298.331 195.852 294.919 196.022C288.607 196.364 286.048 198.923 286.048 204.723C285.877 214.618 286.218 224.683 283.83 234.236C282.124 241.231 279.053 248.225 279.906 255.561C280.759 263.408 287.754 268.015 294.236 271.427C303.79 276.374 314.708 278.25 325.456 278.421C334.839 278.592 344.904 276.886 353.434 272.621C354.457 272.109 355.31 271.597 356.163 270.915C339.956 276.203 321.873 276.203 312.32 261.191Z" fill="#DB6B45"/>
<path d="M383.629 151.667C384.312 144.161 386.188 118.059 387.724 112.6C390.283 104.582 400.007 104.411 407.172 104.923C411.266 105.264 416.043 106.117 420.478 107.653C428.155 110.382 432.42 112.429 432.25 119.083C431.226 141.772 427.985 159.173 424.573 169.75C421.673 178.451 418.09 179.986 412.802 180.498C409.048 180.839 398.813 179.816 392.671 178.963C388.235 178.28 383.629 176.915 382.606 168.897C381.923 163.097 383.118 156.614 383.629 151.667Z" fill="#93426E"/>
<path d="M392.671 178.792C394.718 179.133 397.277 179.475 399.836 179.816C407.513 180.669 412.972 173.333 416.043 164.974C420.308 153.032 421.161 139.555 420.82 127.272C420.649 121.13 420.479 113.965 419.284 107.141C415.19 105.776 410.925 105.094 407.172 104.753C400.007 104.07 390.283 104.411 387.724 112.43C386.018 117.889 384.312 143.99 383.629 151.496C383.118 156.444 382.094 162.927 382.776 168.727C383.629 176.745 388.406 178.11 392.671 178.792Z" fill="#7C315D"/>
<path d="M369.64 35.831C353.775 30.0307 327.162 28.6659 304.472 33.1015C271.376 39.5842 249.369 65.6856 246.128 106.117C244.422 126.589 246.298 149.279 251.075 170.091C265.235 231.165 321.532 245.155 350.192 236.454C366.228 231.507 377.829 221.441 386.359 207.111C404.442 177.086 415.531 124.201 404.784 81.21C399.666 61.0795 389.089 42.9961 369.64 35.831Z" fill="#FFA26E"/>
<path d="M404.613 81.21C399.495 61.0795 389.089 42.9961 369.47 35.831C353.604 30.0307 326.991 28.6659 304.302 33.1015C271.206 39.5842 249.198 65.6856 245.957 106.117C244.251 126.589 246.128 149.279 250.904 170.091C261.481 215.3 295.089 234.748 323.408 238.16C322.214 237.819 320.85 237.478 319.655 237.136C308.225 233.724 297.478 228.265 288.777 220.077C280.588 212.57 274.106 202.505 273.423 191.246C272.912 180.839 279.565 171.797 287.924 166.338C302.937 156.785 323.067 155.932 340.298 156.273C350.875 156.444 361.622 157.297 372.199 157.808C382.265 158.32 393.695 158.15 403.589 160.709C409.731 135.631 411.096 106.629 404.613 81.21Z" fill="#F4905D"/>
<path d="M387.041 28.6657C364.352 8.53517 334.668 4.09962 305.666 10.0705C279.224 15.5297 253.805 30.2011 240.669 54.5966C233.845 67.3914 229.75 82.404 229.068 96.9048C228.727 106.288 230.433 120.277 237.427 127.954C240.327 131.195 241.18 128.977 240.839 125.906C238.621 108.847 241.863 90.9339 252.61 77.1155C264.893 61.2499 286.559 61.5911 304.643 62.9559C323.579 64.4912 342.004 68.415 361.111 67.2208C369.47 66.709 381.071 65.3442 388.065 59.3733C393.865 64.6618 398.472 70.6328 402.054 78.1391C405.637 85.6454 406.66 93.6635 407.513 101.852C407.854 106.458 409.39 107.141 410.584 102.364C416.725 75.7507 407.513 46.9197 387.041 28.6657Z" fill="#521E3F"/>
<path d="M332.791 20.3065C330.573 17.4063 327.844 16.0415 324.773 15.7003C321.873 15.1885 308.225 15.7003 304.472 16.3827C302.595 16.7239 300.889 17.0651 299.354 17.7475C297.648 18.4299 298.33 19.1123 299.354 19.7947C311.466 27.8128 312.149 50.3317 312.149 63.8089C312.149 65.6855 313.684 66.1973 316.073 66.1973C324.091 66.0267 331.938 65.6855 339.956 65.5149C343.027 65.3443 343.368 65.0031 343.539 62.7853C344.221 47.4315 341.492 31.9071 332.791 20.3065Z" fill="#1B4C9B"/>
<path d="M318.802 50.1611C316.926 43.849 317.096 36.8545 319.826 30.8835C322.555 24.742 328.185 22.5243 334.327 22.3537C333.815 21.6713 333.303 20.9889 332.791 20.3065C330.573 17.4063 327.844 16.0415 324.773 15.7003C321.873 15.1885 308.225 15.7003 304.472 16.3827C302.595 16.7239 300.889 17.0651 299.354 17.7475C297.648 18.4299 298.33 19.1123 299.354 19.7947C311.466 27.8128 312.149 50.3317 312.149 63.8089C312.149 65.6855 313.684 66.1973 316.073 66.1973C320.338 66.0267 324.773 66.0267 329.038 65.8561C324.261 61.4206 320.508 56.132 318.802 50.1611Z" fill="#103E82"/>
<path d="M262.334 154.908C261.652 147.402 259.775 121.3 258.24 115.841C255.681 107.823 245.957 107.652 238.792 108.164C234.698 108.505 229.921 109.358 225.485 110.894C217.808 113.623 213.543 115.671 213.714 122.324C214.738 145.013 217.979 162.414 221.391 172.991C224.291 181.692 227.874 183.227 233.162 183.739C236.915 184.08 247.151 183.057 253.293 182.204C257.728 181.521 262.334 180.157 263.358 172.138C263.87 166.509 262.676 160.026 262.334 154.908Z" fill="#93426E"/>
<path d="M258.07 115.841C255.852 108.847 248.004 107.823 241.351 107.994C248.857 116.865 250.051 131.195 250.734 142.284C252.44 175.38 245.957 180.498 234.015 183.91C238.28 184.081 247.492 183.057 253.122 182.204C257.558 181.522 262.164 180.157 263.187 172.139C263.87 166.338 262.676 159.856 262.335 154.908C261.652 147.573 259.776 121.301 258.07 115.841Z" fill="#7C315D"/>
<path d="M229.58 123.177C225.144 114.818 213.032 112.429 213.714 125.224C214.908 146.549 217.979 163.097 221.391 173.162C225.827 186.298 233.504 176.062 234.868 170.091C237.769 158.15 234.698 132.731 229.58 123.177Z" fill="#D3D0FF"/>
<path d="M229.58 123.177C225.997 116.353 217.467 113.623 214.738 119.424C219.514 116.012 225.315 119.936 227.874 126.589C230.091 132.389 230.944 139.043 232.139 145.184C233.674 153.373 234.356 161.903 231.456 169.921C230.774 172.138 229.58 173.844 228.044 175.55C225.485 178.28 222.926 174.356 221.732 172.65C221.391 172.138 221.05 171.456 220.709 170.774C220.879 171.627 221.22 172.309 221.391 172.991C225.827 186.127 233.503 175.892 234.868 169.921C237.768 158.149 234.698 132.73 229.58 123.177Z" fill="#B1B1F2"/>
<path d="M393.012 51.6966C382.606 50.3318 372.029 49.82 361.622 49.6494C334.497 49.1376 280.077 51.6966 258.581 59.5441C253.122 61.5913 242.374 67.221 239.304 78.4804C235.721 91.7871 236.574 114.477 239.304 129.83C242.886 150.473 255.852 154.908 266.088 156.614C296.795 162.073 368.105 161.903 410.754 156.444C423.037 154.908 433.956 144.502 435.15 132.56C437.709 107.994 436.344 93.6636 435.832 83.2572C434.809 59.0323 419.455 55.1085 393.012 51.6966Z" fill="#3C68CD"/>
<path d="M427.473 74.8979C425.426 68.5858 421.332 63.6384 413.825 60.3971C393.695 51.8672 327.844 54.4261 292.53 58.1793C278.029 59.7147 268.305 62.956 262.846 68.9269C255.169 77.4568 256.705 119.253 260.287 129.319C265.405 143.649 279.053 144.161 289.63 144.843C316.414 146.378 391.989 146.89 412.802 140.066C424.743 136.142 428.838 131.366 429.861 110.212C430.373 98.2698 429.691 81.8924 427.473 74.8979Z" fill="#1B4C9B"/>
<path d="M406.49 35.3192C398.471 24.9127 387.553 17.9182 375.953 11.9473C362.475 4.95277 348.828 1.02903 333.815 0.176046C306.007 -1.18874 275.47 5.29397 253.293 22.695C248.004 26.7893 238.792 34.125 237.768 41.9725C237.257 45.5551 241.863 51.3554 245.275 51.6966C247.151 51.8672 255.852 50.3318 258.24 48.967C260.799 47.4316 263.187 45.5551 265.405 43.8491C278.2 33.9544 292.36 26.4481 308.055 22.1832C325.797 17.4064 342.515 19.6242 359.063 27.1305C365.546 30.0307 371.688 33.7838 377.659 37.537C382.094 40.2665 386.188 43.3373 391.136 45.0433C391.818 45.2139 395.23 46.0668 398.642 45.7257C401.713 45.3845 404.784 44.1903 405.807 42.9961C407.854 40.6077 407.684 36.8546 406.49 35.3192Z" fill="#EB8382"/>
<path d="M368.105 26.7893C352.581 17.9183 336.033 13.4827 318.12 15.8711C302.084 18.0889 286.218 24.5716 272.57 33.6133C266.258 37.7076 258.752 43.6785 250.734 42.3137C247.492 41.802 244.763 39.243 241.351 39.243C240.157 39.243 238.963 39.4136 238.11 39.7548C237.939 40.4372 237.768 41.1196 237.598 41.8019C237.086 45.3845 241.692 51.1848 245.104 51.526C246.981 51.6966 255.681 50.1612 258.07 48.7965C260.629 47.2611 263.017 45.3845 265.235 43.6785C278.029 33.7839 292.189 26.2776 307.884 22.0126C325.626 17.2359 342.345 19.4536 358.893 26.9599C365.376 29.8601 371.517 33.6133 377.488 37.3664C381.924 40.096 386.018 43.1667 390.965 44.8727C391.648 45.0433 395.06 45.8963 398.472 45.5551C401.031 45.3845 403.419 44.3609 404.784 43.5079C392.159 46.9199 379.194 33.1015 368.105 26.7893Z" fill="#C37A87"/>
<path d="M237.427 43.508C230.433 50.3319 219.514 67.2211 213.544 86.328C208.937 101.17 207.914 117.206 209.79 133.242C210.132 136.484 210.985 140.408 212.861 143.308C214.226 145.525 217.638 145.696 220.879 145.184C224.121 144.672 227.191 143.478 227.362 139.555C227.703 135.46 227.021 130.683 226.68 127.272C225.997 119.424 222.073 112.941 222.073 104.753C222.244 76.604 234.868 61.2502 245.275 49.3083C247.322 47.4317 241.18 39.7548 237.427 43.508Z" fill="#EB8382"/>
<path d="M295.43 336.254C288.948 329.43 281.1 323.8 273.082 319.023C264.893 314.247 255.681 309.982 245.957 307.252C233.333 303.84 215.932 299.575 201.09 307.082C188.636 313.223 178.741 325.336 171.576 336.936C164.411 348.196 158.952 361.502 159.464 375.15C159.635 379.244 160.487 383.168 162.023 386.751C162.023 386.751 162.023 386.921 162.193 386.921C163.046 388.798 164.07 390.504 165.094 392.039C165.094 392.039 165.094 392.21 165.264 392.21C165.435 392.551 165.605 392.722 165.947 393.063C169.359 397.84 173.624 402.105 178.4 405.175C186.077 410.123 214.055 410.293 227.874 410.634C234.015 410.805 239.133 406.199 241.01 403.128C244.251 403.128 247.322 402.275 250.222 400.569C254.316 398.01 257.046 393.575 257.387 389.139C257.899 389.139 258.24 389.139 258.752 388.969C264.893 387.945 267.964 381.974 269.499 376.344C270.352 373.273 270.864 368.156 268.817 366.45C268.135 365.938 259.093 366.961 253.122 362.867C249.369 360.308 246.298 356.896 243.398 353.655C240.839 350.925 236.915 346.49 235.039 342.225C233.162 337.448 234.698 335.401 238.962 336.766C249.369 339.836 259.434 344.613 268.476 350.925C275.812 356.043 283.659 361.673 293.042 361.843C298.331 362.014 303.96 358.773 304.301 352.972C304.472 346.148 299.695 341.031 295.43 336.254Z" fill="#FFA26E"/>
<path d="M426.62 384.192C426.108 379.415 422.696 375.15 420.137 371.226C416.896 366.62 414.166 362.014 410.243 357.92C402.907 350.413 391.477 350.413 381.753 350.072C371.858 349.731 361.793 349.56 351.898 351.096C344.051 352.29 338.421 355.361 338.08 363.891C337.909 369.861 343.368 372.762 348.316 374.126C360.258 377.368 373.735 374.638 385.335 377.88C390.453 379.244 390.795 381.121 389.6 385.386C389.259 386.409 388.918 387.433 388.577 388.457C386.7 392.892 382.435 394.428 379.365 395.792C375.611 397.328 371.346 399.204 368.276 400.057C363.84 401.422 359.575 401.934 355.31 399.716C352.239 398.181 349.68 395.451 346.439 394.428C339.274 391.869 331.768 391.698 324.603 394.428C321.702 395.451 319.144 397.498 319.485 400.398C317.267 402.275 316.755 405.005 317.949 408.758C320.338 417.288 323.92 427.524 329.55 434.518C329.721 434.689 329.891 435.03 330.232 435.2C330.915 438.954 333.985 442.366 337.739 445.266C342.515 448.848 347.804 451.919 352.922 455.16C358.04 458.402 363.84 462.496 369.811 463.52C376.976 464.714 386.871 464.543 393.524 461.473C397.107 459.767 400.348 454.307 401.713 450.895C402.054 450.042 402.395 449.019 402.566 448.166C405.466 446.63 408.196 444.583 410.413 442.366C413.996 438.783 414.849 433.836 414.508 428.888C418.261 425.476 421.673 421.553 423.891 417.458C427.132 411.487 426.108 403.469 423.038 397.328C425.426 393.063 427.132 388.627 426.62 384.192Z" fill="#FFA26E"/>
<path d="M358.04 179.304C347.121 182.716 333.815 184.08 316.243 180.839C306.178 178.962 301.06 185.786 303.278 194.316C305.325 202.164 309.931 207.623 315.731 211.376C335.862 224 357.187 214.788 364.181 206.258C367.934 201.652 370.323 196.363 371.176 191.416C372.54 181.863 365.546 176.915 358.04 179.304Z" fill="#7C2D0E"/>
<path d="M319.826 209.841C325.114 212.741 330.915 214.106 336.715 214.106C344.733 214.106 352.41 211.206 357.357 207.623C361.622 204.552 360.599 201.823 355.651 200.117C344.563 196.364 331.427 196.875 320.85 201.823C313.684 205.235 315.049 207.452 319.826 209.841Z" fill="#FF61AC"/>
<path d="M337.568 166.679C338.421 166.168 338.933 165.656 339.274 165.144C340.468 163.268 336.033 163.097 335.18 164.632C334.497 165.827 335.862 167.874 337.568 166.679Z" fill="#7C2D0E"/>
<path d="M344.221 165.997C343.539 165.656 343.198 165.144 342.857 164.803C341.833 163.267 345.586 163.267 346.268 164.291C346.78 165.315 345.586 166.85 344.221 165.997Z" fill="#7C2D0E"/>
<path d="M299.013 347.001C297.478 345.296 294.919 343.419 292.36 342.907C287.754 341.884 282.636 344.954 284.512 351.437C285.706 355.531 289.46 359.796 294.066 359.455C296.625 359.285 298.501 357.408 300.037 355.531C302.084 352.631 301.06 349.39 299.013 347.001Z" fill="white"/>
<path d="M342.686 359.114C340.298 362.526 340.809 367.302 343.88 369.52C347.463 372.25 355.31 370.544 357.869 367.302C359.405 365.426 359.746 363.037 359.063 360.99C358.21 358.602 358.381 357.749 353.434 356.725C350.022 356.043 344.904 355.872 342.686 359.114Z" fill="white"/>
<path d="M378.341 423.088C370.835 423.088 363.328 423.088 355.651 423.258C353.604 423.258 350.875 423.77 348.998 422.747C346.439 421.553 327.503 407.393 325.967 406.028C321.361 401.763 319.314 398.522 327.503 393.574C326.479 393.745 325.626 394.086 324.603 394.427C321.702 395.451 319.144 397.498 319.485 400.398C317.267 402.275 316.755 405.005 317.949 408.758C320.338 417.288 323.92 427.523 329.55 434.518C329.721 434.689 329.891 435.03 330.232 435.2C330.915 438.953 333.985 442.365 337.739 445.266C342.515 448.848 347.804 451.919 352.922 455.16C357.357 458.06 362.475 461.472 367.593 463.008C359.575 458.402 343.71 446.801 341.321 444.071C336.715 438.783 345.074 438.783 352.41 439.806C358.722 440.659 365.205 441.001 371.517 441.683C372.541 441.854 374.588 441.512 371.688 440.83C362.475 438.442 352.922 437.418 343.539 436.053C341.151 435.712 336.033 434.177 332.45 430.935C331.597 430.082 326.479 424.282 323.067 415.923C320.508 409.44 321.873 409.952 326.65 412.681C331.256 415.411 344.733 423.258 346.439 424.111C348.828 425.306 351.045 425.988 354.287 425.988C362.475 425.988 370.664 425.135 378.853 424.111C381.241 423.6 381.071 423.088 378.341 423.088Z" fill="#F4905D"/>
<path d="M268.476 366.45C267.794 365.938 258.752 366.961 252.781 362.867C249.028 360.308 245.957 356.896 243.057 353.655C240.668 351.096 237.086 347.001 235.209 343.078C235.892 345.637 237.257 348.025 238.451 350.243C241.18 355.02 244.763 359.796 248.687 363.72C252.952 367.985 258.069 369.179 263.017 372.079C267.794 374.809 261.823 381.633 259.605 383.851C255.852 387.433 242.033 384.704 232.821 379.927C223.779 375.321 215.079 369.52 206.89 364.232C206.549 364.061 206.208 364.573 206.549 364.744C216.102 373.444 227.191 380.609 238.962 385.898C242.033 387.262 245.104 388.457 248.175 389.31C248.687 389.651 249.198 389.992 249.71 390.333C253.634 393.404 249.369 397.84 246.639 399.375C241.521 402.275 232.309 400.057 225.656 397.84C218.491 395.622 211.496 392.38 204.843 388.968C204.331 388.627 203.99 389.31 204.331 389.651C210.473 394.257 218.661 398.693 227.362 401.593C231.968 403.128 234.868 406.54 228.897 408.246C227.703 408.587 226.509 408.928 225.315 409.099C209.278 409.952 191.877 405.346 178.4 396.304C166.288 388.115 162.193 375.15 160.999 361.673C159.976 366.108 159.464 370.544 159.635 374.979C159.805 379.074 160.658 382.998 162.193 386.58C162.193 386.58 162.193 386.751 162.364 386.751C163.217 388.627 164.241 390.333 165.264 391.869C165.264 391.869 165.264 392.039 165.435 392.039C165.605 392.38 165.776 392.551 166.117 392.892C169.529 397.669 173.794 401.934 178.571 405.005C184.03 408.587 200.066 409.611 213.885 410.123C214.055 410.123 214.055 410.123 214.226 410.123C215.42 410.123 216.614 410.123 217.638 410.293C217.808 410.293 217.979 410.293 218.15 410.293C219.344 410.293 220.367 410.293 221.562 410.293C221.732 410.293 221.732 410.293 221.903 410.293C223.097 410.293 224.12 410.293 225.144 410.293C226.168 410.293 227.191 410.293 228.215 410.293C228.897 410.293 229.58 410.293 230.262 410.123C230.433 410.123 230.433 410.123 230.603 410.123C231.286 409.952 231.797 409.952 232.309 409.611C232.48 409.611 232.65 409.44 232.821 409.44C233.333 409.27 233.674 409.099 234.186 408.928C234.527 408.758 234.698 408.758 235.039 408.587C235.209 408.417 235.38 408.417 235.551 408.246C238.28 406.711 240.327 404.493 241.351 402.957C244.592 402.957 247.663 402.104 250.563 400.399C254.657 397.84 257.387 393.404 257.728 388.968C258.24 388.968 258.581 388.968 259.093 388.798C265.235 387.774 268.305 381.803 269.841 376.174C270.011 373.273 270.523 368.156 268.476 366.45Z" fill="#F4905D"/>
<path d="M453.063 288.828C450.333 312.029 440.78 334.889 426.45 353.484C426.279 353.825 426.62 354.167 426.791 353.825C436.003 346.319 441.462 336.083 446.068 325.506C451.016 313.906 453.916 301.452 453.404 288.828C453.233 288.657 453.063 288.657 453.063 288.828Z" fill="#F5F5F5"/>
<path d="M169.87 270.744C166.458 284.392 167.994 299.234 170.382 312.882C170.382 313.223 170.723 313.052 170.894 312.882C171.918 298.893 170.212 284.733 170.212 270.744C170.212 270.574 169.87 270.574 169.87 270.744Z" fill="#F5F5F5"/>
<path d="M247.663 436.053C265.746 453.284 294.236 472.05 319.826 460.108C320.167 459.937 319.996 459.425 319.655 459.596C292.701 467.443 268.988 450.554 247.834 435.712C247.663 435.712 247.492 435.883 247.663 436.053Z" fill="#F5F5F5"/>
<path d="M317.096 465.226C321.873 466.59 326.138 465.567 329.721 461.984C329.891 461.814 329.721 461.473 329.379 461.473C325.797 463.349 321.191 464.714 317.267 464.884C316.926 464.884 316.926 465.226 317.096 465.226Z" fill="#F5F5F5"/>
<path d="M413.655 60.3971C393.524 51.8672 327.673 54.4261 292.36 58.1793C277.859 59.7147 268.135 62.956 262.676 68.9269C261.652 70.1211 260.628 71.9977 259.946 74.3861C264.723 71.4859 270.011 69.0976 275.641 67.5622C287.583 64.3208 300.548 63.4678 312.831 62.6148C337.397 61.0795 362.475 60.9089 387.041 61.9324C399.666 62.4442 416.725 62.956 421.332 77.2862C424.061 85.6455 423.891 95.199 423.72 103.9C423.549 113.794 422.526 123.859 419.455 133.242C418.943 134.948 418.261 136.654 417.408 138.019C425.938 134.266 429.179 128.124 429.861 109.87C430.373 97.9286 429.691 81.3806 427.473 74.5567C425.426 68.5858 421.332 63.6384 413.655 60.3971Z" fill="#103E82"/>
<path d="M266.258 156.614C296.966 162.073 368.276 161.903 410.925 156.444C418.773 155.42 425.938 150.814 430.544 144.672C423.72 150.302 413.655 151.837 409.901 152.69C401.03 154.396 391.477 154.738 382.947 155.249C353.604 157.467 324.432 157.808 295.089 156.273C282.465 155.591 267.964 154.738 256.534 148.596C246.128 142.966 243.057 131.195 241.351 120.277C239.645 109.7 239.645 98.4403 240.327 87.6926C240.668 81.7217 241.692 75.0684 244.251 69.2681C242.033 71.827 240.327 74.8978 239.304 78.4803C235.721 91.787 236.574 114.476 239.304 129.83C242.886 150.473 256.022 154.908 266.258 156.614Z" fill="#1B4C9B"/>
<path d="M242.374 43.3374C243.057 52.0379 235.209 60.3972 230.603 67.0505C224.803 75.2392 221.391 84.4515 219.514 94.3461C217.808 103.388 218.832 111.918 221.05 120.789C222.073 125.395 223.097 130.172 222.414 134.948C221.732 140.066 218.15 143.308 213.714 144.161C215.42 145.525 218.15 145.525 220.879 145.014C224.12 144.502 227.191 143.308 227.362 139.384C227.703 135.29 227.021 130.513 226.679 127.101C225.997 119.253 222.073 112.771 222.073 104.582C222.244 76.4334 234.868 61.0796 245.275 49.1377C246.639 48.2847 244.933 45.0434 242.374 43.3374Z" fill="#C37A87"/>
<path d="M565.316 127.442C568.728 131.877 566.51 131.536 562.757 131.707C527.443 133.242 491.959 133.242 456.475 133.413C456.133 133.413 446.239 134.436 455.963 130.683C482.235 120.277 509.019 110.382 536.144 103.046C541.774 101.511 541.432 101.852 544.674 104.752C547.915 107.653 550.815 110.894 553.715 113.965C557.639 118.23 561.734 122.665 565.316 127.442ZM183.859 157.296C156.052 151.155 127.903 146.208 99.9253 140.749C91.566 139.043 95.1486 143.307 96.5133 146.549C99.4135 153.543 102.314 160.367 105.726 167.021C108.285 171.968 108.626 171.627 114.085 170.944C137.627 168.215 160.999 164.632 184.201 160.538C193.242 159.002 187.613 157.979 183.859 157.296ZM497.248 81.0393C492.3 79.3333 487.012 78.1391 481.723 76.9449C478.652 76.2626 476.093 76.9449 474.387 79.1627C466.711 89.0574 459.545 99.6344 452.38 110.041C447.945 116.353 450.504 114.476 454.257 112.259C468.758 103.558 483.941 95.7107 498.101 86.3278C502.365 83.4277 501.512 82.5747 497.248 81.0393ZM165.264 100.658C161.511 102.193 157.587 103.729 153.834 105.094C148.034 107.311 149.228 107.994 153.152 110.212C163.558 115.841 174.306 120.959 185.054 126.248C190.001 128.636 190.172 128.124 187.271 123.859C182.665 116.694 177.718 109.7 172.429 102.876C170.041 99.4638 168.847 99.1226 165.264 100.658ZM475.752 171.968C468.928 166.338 461.934 161.05 454.769 155.932C452.21 154.055 451.016 154.567 452.38 157.638C457.328 168.556 462.104 179.645 467.393 190.392C470.122 196.022 470.634 195.51 472.852 190.222C474.387 186.639 475.923 183.227 477.458 179.815C480.017 173.844 479.164 174.697 475.752 171.968ZM192.389 172.48C182.836 179.815 173.453 187.492 164.411 195.51C160.488 198.922 161.17 199.946 165.264 199.605C168.335 199.434 171.235 199.264 174.306 198.752C178.571 198.069 180.106 197.216 183.689 192.098C187.783 186.128 191.707 180.327 195.46 174.015C199.554 166.679 194.266 170.944 192.389 172.48Z" fill="#EB8382"/>
<path d="M475.24 184.421C474.899 184.592 474.387 184.592 474.046 184.763C469.27 185.786 466.199 179.474 463.981 176.233C460.569 171.115 457.157 165.826 453.916 160.538C453.404 159.514 452.722 158.661 452.21 157.638C457.157 168.556 461.934 179.645 467.052 190.392C469.781 196.022 470.293 195.51 472.511 190.222C473.705 188.345 474.558 186.469 475.24 184.421Z" fill="#C37A87"/>
<path d="M553.715 113.794C552.692 112.6 551.668 111.576 550.645 110.382C551.668 112.6 552.521 114.988 553.545 117.206C555.08 120.447 557.98 126.759 552.692 127.783C546.721 128.977 540.238 128.977 534.267 129.489C512.601 130.854 490.765 131.707 469.099 132.73C463.469 132.901 458.01 133.242 452.38 133.583C453.574 133.924 456.304 133.583 456.645 133.583C491.959 133.242 527.443 133.413 562.928 131.877C566.681 131.707 568.899 132.048 565.487 127.612C561.733 122.665 557.639 118.229 553.715 113.794Z" fill="#C37A87"/>
<path d="M484.623 90.0808C480.7 92.9809 476.776 96.0517 472.852 98.9518C468.417 102.193 464.152 105.605 459.887 108.847C472.682 101.34 485.818 94.5163 498.101 86.157C502.366 83.2568 501.513 82.4039 497.248 81.0391C493.836 79.8449 490.424 78.9919 487.012 78.1389C488.547 79.5037 489.571 81.0391 489.741 83.0863C490.083 86.3276 486.841 88.3748 484.623 90.0808Z" fill="#C37A87"/>
<path d="M192.389 172.48C192.219 172.65 192.048 172.821 191.878 172.991C189.66 178.962 180.789 189.369 179.424 190.734C176.183 194.145 172.6 197.046 168.676 199.434C170.723 199.263 172.6 199.093 174.477 198.752C178.742 198.069 180.277 197.216 183.859 192.098C187.954 186.127 191.878 180.327 195.631 174.015C199.554 166.679 194.266 170.944 192.389 172.48Z" fill="#C37A87"/>
<path d="M177.035 120.618C172.088 117.547 166.97 114.306 162.364 110.723C160.317 109.188 158.44 107.141 158.099 104.582C158.099 104.24 158.099 103.729 158.099 103.387C156.564 103.899 155.199 104.582 153.664 105.093C147.863 107.311 149.057 107.994 152.981 110.211C163.388 115.841 174.135 120.959 184.883 126.248C186.76 127.101 187.783 127.612 188.466 127.783C184.883 125.395 180.959 123.006 177.035 120.618Z" fill="#C37A87"/>
<path d="M187.613 159.855C171.747 161.561 155.711 162.414 139.675 163.438C134.727 163.779 129.78 163.95 124.833 163.779C119.715 163.609 114.085 163.267 109.479 161.05C104.702 158.832 101.802 154.738 98.5605 150.984C100.778 156.444 103.167 161.903 105.896 167.191C108.455 172.139 108.796 171.797 114.256 171.115C137.798 168.385 161.17 164.803 184.371 160.708C185.736 160.367 186.76 160.026 187.613 159.855Z" fill="#C37A87"/>
<defs>
<linearGradient id="paint0_linear_39_2251" x1="303.496" y1="116.843" x2="303.496" y2="582.673" gradientUnits="userSpaceOnUse">
<stop stop-color="#826F8C"/>
<stop offset="1" stop-color="#446381"/>
</linearGradient>
</defs>
</svg>
